<svg width="32" height="32" viewBox="0 0 32 32" fill="none" xmlns="http://www.w3.org/2000/svg">
<g clip-path="url(#clip0_1062_169)">
<path d="M24.5 0H7.5C3.35786 0 0 3.35786 0 7.5V24.5C0 28.6421 3.35786 32 7.5 32H24.5C28.6421 32 32 28.6421 32 24.5V7.5C32 3.35786 28.6421 0 24.5 0Z" fill="#042f27"/>
<path d="M10.9312 10.8756L9.4762 9.4201L9.48182 19.9329L9.49932 20.4237C9.50645 20.6557 9.55045 20.9159 9.6207 21.1866L21.1432 25.2506L24.0259 23.9745L24.0284 23.9702L10.9304 10.8756H10.9312Z" fill="#00C4B3"/>
<path d="M9.62131 21.1866H9.62231C9.62096 21.1818 9.61934 21.1771 9.61743 21.1725C9.61993 21.1779 9.61993 21.1831 9.62093 21.1866H9.62131ZM24.0234 23.9745L21.1406 25.2506L9.61993 21.1866C9.83968 22.0317 10.3273 22.9816 10.8512 23.4999L14.6093 27.2395L22.9723 27.25L24.0199 23.9745H24.0234Z" fill="#22D3C5"/>
<path d="M9.51577 9.42047L5.03577 16.1863C4.6639 16.5836 4.84952 17.4033 5.44827 18.0073L8.03427 20.6146L9.6599 21.1876C9.58965 20.9176 9.5454 20.6602 9.53865 20.4247L9.52115 19.934L9.51577 9.42122V9.42047Z" fill="#0075C9"/>
<path d="M21.2382 9.5559C20.9676 9.48727 20.7081 9.44402 20.4743 9.4374L19.9547 9.4184L9.47632 9.4209L24.0282 23.9706L25.3064 21.0878L21.2389 9.55652L21.2382 9.5559Z" fill="#0075C9"/>
<path d="M21.2249 9.55336C21.2292 9.55478 21.2337 9.55594 21.2382 9.55686V9.55549C21.2337 9.55449 21.2295 9.55449 21.2249 9.55261V9.55336ZM23.5505 10.7901C23.0214 10.2576 22.0845 9.77061 21.2382 9.55686L25.3059 21.0871L24.0261 23.9699L27.1487 22.9721L27.1557 14.4109L23.5501 10.7899L23.5505 10.7901Z" fill="#00A8E1"/>
<path d="M20.668 7.9404L18.0665 5.3529C17.4596 4.7564 16.6398 4.57002 16.2461 4.94127L9.48059 9.42015L19.959 9.41765L20.4785 9.43665C20.7123 9.44377 20.9721 9.48665 21.2425 9.55515L20.6687 7.93977L20.668 7.9404Z" fill="#00C4B3"/>
</g>
<defs>
<clipPath id="clip0_1062_169">
<rect width="32" height="32" fill="white"/>
</clipPath>
</defs>
</svg>
