<svg width="32" height="32" viewBox="0 0 32 32" fill="none" xmlns="http://www.w3.org/2000/svg">
<g clip-path="url(#clip0_1062_319)">
<path d="M24.5 0H7.5C3.35786 0 0 3.35786 0 7.5V24.5C0 28.6421 3.35786 32 7.5 32H24.5C28.6421 32 32 28.6421 32 24.5V7.5C32 3.35786 28.6421 0 24.5 0Z" fill="#042f27"/>
<path d="M13.6289 5H17.6313V23.9229C15.5781 24.3208 14.0706 24.4802 12.4335 24.4802C7.54687 24.4802 5 22.224 5 17.8969C5 13.7281 7.70292 11.0219 11.8879 11.0219C12.5376 11.0219 13.0312 11.074 13.6289 11.2333V5ZM13.6289 14.524C13.1938 14.374 12.7366 14.3021 12.2775 14.3115C10.2498 14.3115 9.0809 15.5854 9.0809 17.8167C9.0809 19.9937 10.1988 21.1875 12.252 21.1875C12.6936 21.1875 13.0578 21.1615 13.6289 21.0812V14.524ZM24 11.3125V20.7896C24 24.0542 23.7664 25.6208 23.0647 26.974C22.415 28.275 21.5572 29.0979 19.7896 30L16.0728 28.1948C17.8404 27.3458 18.6982 26.601 19.2439 25.4604C19.8161 24.2927 19.9976 22.9385 19.9976 19.3823V11.3115L24 11.3125ZM19.9976 5.02187H24V9.21562H19.9976V5.02187Z" fill="#019936"/>
</g>
<defs>
<clipPath id="clip0_1062_319">
<rect width="32" height="32" fill="white"/>
</clipPath>
</defs>
</svg>
