<svg width="32" height="32" viewBox="0 0 32 32" fill="none" xmlns="http://www.w3.org/2000/svg">
<g clip-path="url(#clip0_1062_179)">
<path d="M24.5 0H7.5C3.35786 0 0 3.35786 0 7.5V24.5C0 28.6421 3.35786 32 7.5 32H24.5C28.6421 32 32 28.6421 32 24.5V7.5C32 3.35786 28.6421 0 24.5 0Z" fill="#042f27"/>
<path fill-rule="evenodd" clip-rule="evenodd" d="M26.9807 9.78926C26.9888 9.81976 26.9929 9.85089 26.993 9.88264V14.7825C26.993 14.8454 26.9766 14.9071 26.9456 14.9615C26.9147 15.0158 26.87 15.0609 26.816 15.0924L22.7603 17.4601V22.1533C22.7605 22.2158 22.7443 22.2773 22.7134 22.3317C22.6825 22.3861 22.638 22.4314 22.5841 22.4633L14.1181 27.4051C14.0987 27.4163 14.0776 27.4234 14.0565 27.431C14.0485 27.4338 14.0411 27.4386 14.0328 27.4409C13.9736 27.4567 13.9113 27.4567 13.8521 27.4409C13.8425 27.4381 13.8336 27.4328 13.8244 27.4293C13.805 27.4221 13.7847 27.4159 13.7662 27.4051L5.302 22.4633C5.24811 22.4317 5.20345 22.3866 5.1725 22.3324C5.14141 22.2778 5.12505 22.2161 5.125 22.1533V7.45364C5.12517 7.42139 5.12929 7.39014 5.13737 7.35989C5.13987 7.34951 5.14612 7.34014 5.14962 7.32989C5.15625 7.31114 5.16237 7.29201 5.17212 7.27451C5.17875 7.26289 5.18837 7.25351 5.19637 7.24289C5.20637 7.22851 5.21575 7.21376 5.22762 7.20126C5.23762 7.19101 5.251 7.18339 5.26237 7.17451C5.27512 7.16376 5.28663 7.15214 5.30113 7.14364H5.30162L9.53375 4.67276C9.58724 4.6416 9.64803 4.62518 9.70994 4.62518C9.77184 4.62518 9.83264 4.6416 9.88612 4.67276L14.1185 7.14364H14.1194C14.1334 7.15264 14.1454 7.16376 14.1581 7.17401C14.1695 7.18301 14.1823 7.19101 14.1924 7.20089C14.2048 7.21376 14.2136 7.22851 14.2241 7.24289C14.2316 7.25351 14.2418 7.26289 14.2479 7.27451C14.258 7.29239 14.2637 7.31114 14.2709 7.32989C14.2744 7.34014 14.2805 7.34951 14.2831 7.36026C14.2912 7.39085 14.2953 7.42197 14.2955 7.45364V16.6349L17.8223 14.5758V9.88201C17.8223 9.85076 17.8266 9.81914 17.8346 9.78926C17.8378 9.77851 17.8434 9.76914 17.847 9.75889C17.854 9.74014 17.8601 9.72089 17.8699 9.70351C17.8765 9.69189 17.8861 9.68251 17.8936 9.67176C17.9043 9.65751 17.913 9.64276 17.9254 9.63026C17.9355 9.62001 17.9482 9.61239 17.9597 9.60339C17.9729 9.59276 17.9844 9.58114 17.9985 9.57264H17.999L22.2318 7.10164C22.2852 7.07037 22.346 7.0539 22.4079 7.0539C22.4698 7.0539 22.5306 7.07037 22.584 7.10164L26.8164 9.57264C26.8314 9.58164 26.8428 9.59264 26.856 9.60301C26.867 9.61189 26.8798 9.62001 26.8899 9.62976C26.9023 9.64276 26.911 9.65751 26.9216 9.67176C26.9295 9.68251 26.9393 9.69176 26.9454 9.70351C26.9555 9.72101 26.9613 9.74014 26.9683 9.75889C26.9723 9.76914 26.9781 9.77851 26.9807 9.78926ZM26.2874 14.5758V10.5011L24.8062 11.3656L22.7601 12.5603V16.6349L26.2878 14.5758H26.2874ZM22.055 21.9465V17.8693L20.0424 19.0349L14.295 22.361V26.4766L22.055 21.9465ZM5.8305 8.07214V21.9465L13.5896 26.4763V22.3614L9.53613 20.0351L9.53487 20.0343L9.533 20.0334C9.51937 20.0254 9.508 20.0138 9.49512 20.0039C9.48412 19.995 9.47138 19.9879 9.46175 19.978L9.46087 19.9768C9.44937 19.9655 9.44138 19.9518 9.43175 19.9391C9.423 19.9271 9.41237 19.9169 9.40537 19.9044L9.40487 19.903C9.39687 19.8896 9.392 19.8735 9.38638 19.8584C9.38063 19.845 9.37313 19.8325 9.36963 19.8181V19.8176C9.36525 19.8008 9.36438 19.7829 9.3625 19.7654C9.36075 19.752 9.35725 19.7386 9.35725 19.7253V10.1314L7.31163 8.93626L5.8305 8.07251V8.07214ZM9.7105 5.39526L6.18425 7.45376L9.70963 9.51201L13.2355 7.45326L9.70963 5.39539L9.7105 5.39526ZM11.5444 18.2408L13.5901 17.0466V8.07214L12.1089 8.93676L10.0629 10.1313V19.1059L11.5444 18.2408ZM22.408 7.82426L18.882 9.88264L22.408 11.9409L25.9334 9.88214L22.408 7.82426ZM22.0551 12.5603L20.009 11.3656L18.528 10.5011V14.5758L20.5736 15.7699L22.0551 16.6349V12.5603ZM13.942 21.7425L19.1136 18.7485L21.6989 17.2525L18.1756 15.1955L14.119 17.5638L10.4218 19.7221L13.942 21.7425Z" fill="#FF2D20"/>
</g>
<defs>
<clipPath id="clip0_1062_179">
<rect width="32" height="32" fill="white"/>
</clipPath>
</defs>
</svg>
