<svg width="32" height="32" viewBox="0 0 32 32" fill="none" xmlns="http://www.w3.org/2000/svg">
<g clip-path="url(#clip0_1062_291)">
<path d="M24.5 0H7.5C3.35786 0 0 3.35786 0 7.5V24.5C0 28.6421 3.35786 32 7.5 32H24.5C28.6421 32 32 28.6421 32 24.5V7.5C32 3.35786 28.6421 0 24.5 0Z" fill="#042f27"/>
<path d="M14.9847 3.88952C15.5996 3.53764 16.4003 3.53602 17.0146 3.88952C20.1048 5.63577 23.1961 7.37914 26.2858 9.12639C26.8671 9.45377 27.2557 10.1005 27.2498 10.7701V21.2758C27.2542 21.9731 26.8271 22.6354 26.214 22.9553C23.1338 24.6919 20.0552 26.4305 16.9756 28.1671C16.3482 28.5259 15.5313 28.4983 14.9233 28.11C14 27.5748 13.075 27.042 12.1515 26.5073C11.9627 26.3948 11.75 26.3053 11.6167 26.1223C11.7346 25.9635 11.9452 25.9438 12.1163 25.8744C12.5017 25.7518 12.8558 25.555 13.2098 25.3641C13.2995 25.3029 13.4087 25.3264 13.4946 25.3811C14.2842 25.8339 15.067 26.2999 15.8592 26.7483C16.0282 26.8459 16.1993 26.7163 16.3438 26.6358C19.3663 24.9274 22.3926 23.2256 25.4147 21.5168C25.5267 21.4629 25.5886 21.344 25.5795 21.2214C25.5816 17.7558 25.58 14.2896 25.5806 10.8239C25.5933 10.6849 25.5128 10.5569 25.387 10.4999C22.3176 8.77127 19.2496 7.04014 16.1807 5.31114C16.1275 5.27461 16.0646 5.255 16 5.25489C15.9355 5.25478 15.8725 5.27417 15.8192 5.31052C12.7502 7.04014 9.68295 8.77302 6.61395 10.5014C6.48858 10.5585 6.40445 10.6844 6.41933 10.8239C6.41995 14.2896 6.41933 17.7558 6.41933 21.2219C6.41397 21.2818 6.4271 21.3418 6.45697 21.394C6.48683 21.4462 6.53198 21.4879 6.58633 21.5136C7.4052 21.978 8.2252 22.4391 9.0447 22.902C9.50645 23.1504 10.0732 23.2981 10.582 23.1078C11.0307 22.9468 11.3453 22.4886 11.3368 22.0121C11.3411 18.5668 11.3347 15.1209 11.34 11.6759C11.3287 11.523 11.4738 11.3966 11.6226 11.4111C12.0161 11.4084 12.4101 11.4058 12.8036 11.4121C12.9678 11.4084 13.0808 11.5731 13.0606 11.7271C13.059 15.1944 13.0648 18.6616 13.058 22.1288C13.059 23.0529 12.6793 24.0584 11.8246 24.5105C10.7717 25.0559 9.4702 24.9403 8.42995 24.4173C7.52945 23.9678 6.66995 23.4373 5.78545 22.9558C5.1707 22.6376 4.7457 21.9728 4.75008 21.2759V10.7701C4.74358 10.0866 5.14783 9.42814 5.74695 9.10552C8.82658 7.36764 11.9057 5.62827 14.9847 3.88952Z" fill="#81CD39"/>
<path d="M17.6715 11.1669C19.0146 11.0804 20.4525 11.1156 21.6611 11.7774C22.597 12.2844 23.1157 13.3486 23.1322 14.3883C23.1061 14.5284 22.9595 14.6058 22.8256 14.5961C22.436 14.5956 22.0461 14.6015 21.6565 14.5935C21.4911 14.5999 21.3951 14.4475 21.3743 14.3014C21.2623 13.8039 20.991 13.3113 20.5228 13.0713C19.8041 12.7115 18.9708 12.7296 18.187 12.7371C17.615 12.7674 16.9997 12.817 16.515 13.1534C16.1428 13.4083 16.0298 13.9228 16.1626 14.3371C16.2878 14.6346 16.6312 14.7306 16.9122 14.8191C18.531 15.2425 20.2462 15.2003 21.8338 15.7574C22.4913 15.9845 23.1343 16.4261 23.3593 17.1144C23.6537 18.0369 23.5247 19.1394 22.8683 19.8799C22.3361 20.4893 21.561 20.821 20.7878 21.0011C19.7593 21.2305 18.692 21.2364 17.6475 21.1345C16.6653 21.0225 15.6432 20.7645 14.8851 20.0954C14.2367 19.5324 13.9201 18.6551 13.9515 17.8086C13.959 17.6656 14.1013 17.5659 14.2383 17.5776C14.6307 17.5745 15.0232 17.5734 15.4156 17.5783C15.5723 17.567 15.6886 17.7025 15.6966 17.8503C15.769 18.3241 15.9471 18.8216 16.3603 19.1025C17.158 19.6171 18.1588 19.5819 19.0721 19.5963C19.8286 19.5628 20.678 19.5526 21.2955 19.0525C21.6212 18.7673 21.7177 18.29 21.6297 17.8795C21.5343 17.5329 21.1717 17.3714 20.8603 17.2658C19.2625 16.7604 17.528 16.9438 15.9456 16.3721C15.3031 16.1451 14.6818 15.7159 14.4351 15.0559C14.0907 14.1218 14.2485 12.9663 14.9736 12.2509C15.6806 11.539 16.7011 11.2649 17.6715 11.1669Z" fill="#81CD39"/>
</g>
<defs>
<clipPath id="clip0_1062_291">
<rect width="32" height="32" fill="white"/>
</clipPath>
</defs>
</svg>
