<svg width="32" height="32" viewBox="0 0 32 32" fill="none" xmlns="http://www.w3.org/2000/svg">
<g clip-path="url(#clip0_1062_204)">
<path d="M24.5 0H7.5C3.35786 0 0 3.35786 0 7.5V24.5C0 28.6421 3.35786 32 7.5 32H24.5C28.6421 32 32 28.6421 32 24.5V7.5C32 3.35786 28.6421 0 24.5 0Z" fill="#042f27"/>
<path d="M15.9099 3.625C9.56337 3.625 9.95963 6.37725 9.95963 6.37725L9.96675 9.2285H16.0231V10.0848H7.56112C7.56112 10.0848 3.5 9.624 3.5 16.0276C3.5 22.4312 7.04462 22.2044 7.04462 22.2044H9.16012V19.2327C9.16012 19.2327 9.04612 15.6881 12.6482 15.6881H18.655C18.655 15.6881 22.0299 15.7426 22.0299 12.4264V6.94325C22.0299 6.94325 22.5422 3.625 15.9099 3.625ZM12.5704 5.54238C12.7135 5.54226 12.8552 5.57037 12.9875 5.62508C13.1197 5.6798 13.2399 5.76006 13.3411 5.86126C13.4423 5.96247 13.5226 6.08263 13.5773 6.21488C13.632 6.34713 13.6601 6.48888 13.66 6.632C13.6601 6.77511 13.632 6.91684 13.5773 7.04908C13.5225 7.18132 13.4423 7.30147 13.3411 7.40266C13.2399 7.50385 13.1197 7.58409 12.9875 7.6388C12.8552 7.69351 12.7135 7.72161 12.5704 7.7215C12.4273 7.7216 12.2856 7.69349 12.1533 7.63877C12.0211 7.58405 11.901 7.5038 11.7998 7.40261C11.6986 7.30142 11.6183 7.18128 11.5636 7.04905C11.5089 6.91682 11.4808 6.7751 11.4809 6.632C11.4808 6.48889 11.5089 6.34715 11.5636 6.21491C11.6183 6.08267 11.6985 5.96251 11.7997 5.86131C11.9009 5.7601 12.0211 5.67984 12.1533 5.62512C12.2855 5.57039 12.4273 5.54228 12.5704 5.54238Z" fill="url(#paint0_linear_1062_204)"/>
<path d="M16.0901 28.4947C22.4366 28.4947 22.0404 25.7426 22.0404 25.7426L22.0332 22.8912H15.9769V22.0351H24.4389C24.4389 22.0351 28.5 22.4957 28.5 16.092C28.5 9.68824 24.9554 9.91536 24.9554 9.91536H22.8399V12.887C22.8399 12.887 22.9539 16.4316 19.3517 16.4316H13.345C13.345 16.4316 9.96999 16.377 9.96999 19.6932V25.1765C9.96999 25.1765 9.45762 28.4947 16.0901 28.4947ZM19.4296 26.5774C19.2865 26.5775 19.1448 26.5494 19.0125 26.4947C18.8803 26.44 18.7601 26.3597 18.6589 26.2585C18.5577 26.1573 18.4775 26.0372 18.4227 25.9049C18.368 25.7727 18.3399 25.631 18.34 25.4879C18.3399 25.3447 18.368 25.203 18.4227 25.0707C18.4774 24.9385 18.5577 24.8183 18.6589 24.7171C18.7601 24.6159 18.8802 24.5357 19.0125 24.4809C19.1448 24.4262 19.2865 24.3981 19.4296 24.3982C19.5727 24.3981 19.7145 24.4262 19.8467 24.4809C19.979 24.5357 20.0992 24.6159 20.2004 24.7171C20.3016 24.8183 20.3818 24.9385 20.4365 25.0707C20.4913 25.203 20.5194 25.3447 20.5192 25.4879C20.5193 25.631 20.4912 25.7727 20.4365 25.9049C20.3818 26.0372 20.3015 26.1573 20.2003 26.2585C20.0991 26.3597 19.9789 26.44 19.8467 26.4947C19.7145 26.5494 19.5727 26.5775 19.4296 26.5774Z" fill="url(#paint1_linear_1062_204)"/>
</g>
<defs>
<linearGradient id="paint0_linear_1062_204" x1="5.9025" y1="5.862" x2="18.2916" y2="18.1275" gradientUnits="userSpaceOnUse">
<stop stop-color="#387EB8"/>
<stop offset="1" stop-color="#366994"/>
</linearGradient>
<linearGradient id="paint1_linear_1062_204" x1="13.507" y1="13.7381" x2="26.8115" y2="26.3152" gradientUnits="userSpaceOnUse">
<stop stop-color="#FFE052"/>
<stop offset="1" stop-color="#FFC331"/>
</linearGradient>
<clipPath id="clip0_1062_204">
<rect width="32" height="32" fill="white"/>
</clipPath>
</defs>
</svg>
