<svg width="32" height="32" viewBox="0 0 32 32" fill="none" xmlns="http://www.w3.org/2000/svg">
<g clip-path="url(#clip0_1062_280)">
<path d="M24.5 0H7.5C3.35786 0 0 3.35786 0 7.5V24.5C0 28.6421 3.35786 32 7.5 32H24.5C28.6421 32 32 28.6421 32 24.5V7.5C32 3.35786 28.6421 0 24.5 0Z" fill="#042f27"/>
<mask id="mask0_1062_280" style="mask-type:luminance" maskUnits="userSpaceOnUse" x="4" y="3" width="25" height="26">
<path d="M4 3.5H28.115V28.5H4V3.5Z" fill="white"/>
</mask>
<g mask="url(#mask0_1062_280)">
<path d="M18.0947 27.8991C17.462 28.6957 16.1793 28.2592 16.164 27.242L15.9412 12.3633H25.9455C27.7575 12.3633 28.7682 14.4563 27.6414 15.8755L18.0947 27.8991Z" fill="url(#paint0_linear_1062_280)"/>
<path d="M18.0947 27.8991C17.462 28.6957 16.1793 28.2592 16.164 27.242L15.9412 12.3633H25.9455C27.7575 12.3633 28.7682 14.4563 27.6414 15.8755L18.0947 27.8991Z" fill="url(#paint1_linear_1062_280)" fill-opacity="0.2"/>
<path d="M14.0259 3.95823C14.6585 3.16135 15.9413 3.59798 15.9565 4.61523L16.0543 19.4939H6.17504C4.36292 19.4939 3.35229 17.4008 4.47917 15.9817L14.0259 3.95823Z" fill="#3ECF8E"/>
</g>
</g>
<defs>
<linearGradient id="paint0_linear_1062_280" x1="15.9412" y1="15.6623" x2="24.8327" y2="19.3915" gradientUnits="userSpaceOnUse">
<stop stop-color="#249361"/>
<stop offset="1" stop-color="#3ECF8E"/>
</linearGradient>
<linearGradient id="paint1_linear_1062_280" x1="11.9992" y1="10.265" x2="16.0542" y2="17.8983" gradientUnits="userSpaceOnUse">
<stop/>
<stop offset="1" stop-opacity="0"/>
</linearGradient>
<clipPath id="clip0_1062_280">
<rect width="32" height="32" fill="white"/>
</clipPath>
</defs>
</svg>
