<svg width="32" height="32" viewBox="0 0 32 32" fill="none" xmlns="http://www.w3.org/2000/svg">
<path opacity="0.25" d="M7.24291 24.7572C8.01112 25.5254 9.25666 25.5254 10.0249 24.7572L16.0005 18.7818L21.9753 24.7563C22.7431 25.5242 23.9879 25.5246 24.7563 24.7572C25.5254 23.9892 25.5258 22.7431 24.7573 21.9746L18.7825 16L24.7573 10.0255C25.5251 9.2577 25.5255 8.01295 24.7582 7.24463C23.9901 6.4756 22.7438 6.47519 21.9753 7.24372L16.0005 13.2182L10.0249 7.24282C9.25666 6.47464 8.01112 6.47464 7.24291 7.24282C6.47469 8.01099 6.47469 9.25644 7.24291 10.0246L13.2186 16L7.24291 21.9755C6.47469 22.7436 6.47469 23.9891 7.24291 24.7572Z" fill="currentColor"/>
<path d="M7.24291 24.7572C8.01112 25.5254 9.25666 25.5254 10.0249 24.7572L16.0005 18.7818L21.9753 24.7563C22.7431 25.5242 23.9879 25.5246 24.7563 24.7572C25.5254 23.9892 25.5258 22.7431 24.7573 21.9746L18.7825 16L24.7573 10.0255C25.5251 9.2577 25.5255 8.01295 24.7582 7.24463C23.9901 6.4756 22.7438 6.47519 21.9753 7.24372L16.0005 13.2182L10.0249 7.24282C9.25666 6.47464 8.01112 6.47464 7.24291 7.24282C6.47469 8.01099 6.47469 9.25644 7.24291 10.0246L13.2186 16L7.24291 21.9755C6.47469 22.7436 6.47469 23.9891 7.24291 24.7572Z" stroke="currentColor" stroke-width="2.5" stroke-linecap="round" stroke-linejoin="round"/>
</svg>
