<svg width="32" height="32" viewBox="0 0 32 32" fill="none" xmlns="http://www.w3.org/2000/svg">
<path opacity="0.25" d="M12 20C12 16.2288 12 14.3432 13.1716 13.1716C14.3432 12 16.2288 12 20 12H21.3333C25.1045 12 26.9901 12 28.1617 13.1716C29.3333 14.3432 29.3333 16.2288 29.3333 20V21.3333C29.3333 25.1045 29.3333 26.9901 28.1617 28.1617C26.9901 29.3333 25.1045 29.3333 21.3333 29.3333H20C16.2288 29.3333 14.3432 29.3333 13.1716 28.1617C12 26.9901 12 25.1045 12 21.3333V20Z" fill="currentColor"/>
<path d="M12 20C12 16.2288 12 14.3432 13.1716 13.1716C14.3432 12 16.2288 12 20 12H21.3333C25.1045 12 26.9901 12 28.1617 13.1716C29.3333 14.3432 29.3333 16.2288 29.3333 20V21.3333C29.3333 25.1045 29.3333 26.9901 28.1617 28.1617C26.9901 29.3333 25.1045 29.3333 21.3333 29.3333H20C16.2288 29.3333 14.3432 29.3333 13.1716 28.1617C12 26.9901 12 25.1045 12 21.3333V20Z" stroke="currentColor" stroke-width="2.5" stroke-linecap="round" stroke-linejoin="round"/>
<path d="M22.6666 12C22.6634 8.05723 22.6038 6.01497 21.4561 4.61659C21.2345 4.34654 20.9869 4.09893 20.7169 3.8773C19.2417 2.66669 17.0501 2.66669 12.6667 2.66669C8.28344 2.66669 6.09179 2.66669 4.61665 3.8773C4.3466 4.09891 4.09899 4.34654 3.87736 4.61659C2.66675 6.09173 2.66675 8.28338 2.66675 12.6667C2.66675 17.05 2.66675 19.2416 3.87736 20.7168C4.09897 20.9868 4.3466 21.2344 4.61665 21.456C6.01503 22.6038 8.0573 22.6634 12.0001 22.6666" stroke="currentColor" stroke-width="2.5" stroke-linecap="round" stroke-linejoin="round"/>
</svg>
