<svg width="32" height="32" viewBox="0 0 32 32" fill="none" xmlns="http://www.w3.org/2000/svg">
<path opacity="0.25" d="M21.4561 4.61656C22.6038 6.01494 22.6634 8.0572 22.6666 12L13 13L12.0001 22.6665C8.0573 22.6633 6.01503 22.6037 4.61665 21.456C4.3466 21.2344 4.09897 20.9868 3.87736 20.7168C2.66675 19.2416 2.66675 17.05 2.66675 12.6667C2.66675 8.28335 2.66675 6.0917 3.87736 4.61656C4.09899 4.34651 4.3466 4.09888 4.61665 3.87727C6.09179 2.66666 8.28344 2.66666 12.6667 2.66666C17.0501 2.66666 19.2417 2.66666 20.7169 3.87727C20.9869 4.0989 21.2345 4.34651 21.4561 4.61656Z" fill="currentColor"/>
<path d="M22.6666 12C22.6634 8.05723 22.6038 6.01497 21.4561 4.61659C21.2345 4.34654 20.9869 4.09893 20.7169 3.8773C19.2417 2.66669 17.0501 2.66669 12.6667 2.66669C8.28344 2.66669 6.09179 2.66669 4.61665 3.8773C4.3466 4.09891 4.09899 4.34654 3.87736 4.61659C2.66675 6.09173 2.66675 8.28338 2.66675 12.6667C2.66675 17.05 2.66675 19.2416 3.87736 20.7168C4.09897 20.9868 4.3466 21.2344 4.61665 21.456C6.01503 22.6038 8.0573 22.6634 12.0001 22.6666" stroke="currentColor" stroke-width="2.5" stroke-linecap="round" stroke-linejoin="round"/>
<path d="M28.9535 17.1C29 18.0395 29 19.1579 29 20.5C29 24.5066 29 26.5108 27.7554 27.7554C26.5108 29 24.5075 29 20.5 29C16.4934 29 14.4892 29 13.2446 27.7554C12 26.5108 12 24.5075 12 20.5C12 16.4934 12 14.4892 13.2446 13.2446C14.4892 12 16.4925 12 20.5 12C21.4592 12 22.3038 12 23.05 12.0179" stroke="currentColor" stroke-width="2.5" stroke-linecap="round"/>
<path d="M16.9209 20.0526C16.9209 20.0526 18.263 20.0526 20.0525 23.1842C20.0525 23.1842 24.579 14.9822 28.9998 13.3421" stroke="currentColor" stroke-width="2.5" stroke-linecap="round" stroke-linejoin="round"/>
</svg>
