<svg width="32" height="32" viewBox="0 0 32 32" fill="none" xmlns="http://www.w3.org/2000/svg">
<g clip-path="url(#clip0_1062_82)">
<path d="M24.5 0H7.5C3.35786 0 0 3.35786 0 7.5V24.5C0 28.6421 3.35786 32 7.5 32H24.5C28.6421 32 32 28.6421 32 24.5V7.5C32 3.35786 28.6421 0 24.5 0Z" fill="#00005B"/>
<path d="M13.1446 19.515H8.18461L7.17123 22.6616C7.14461 22.7816 7.03798 22.8616 6.91798 22.8484H4.41123C4.26461 22.8484 4.22461 22.7684 4.26461 22.6084L8.55798 10.3016C8.59798 10.1684 8.63798 10.0484 8.69123 9.88838C8.74461 9.60838 8.77123 9.315 8.77123 9.02162C8.75798 8.955 8.81123 8.88838 8.87786 8.875H12.3312C12.4246 8.875 12.4912 8.915 12.5046 8.98162L17.3712 22.5816C17.4112 22.7284 17.3712 22.795 17.238 22.795H14.4512C14.358 22.8084 14.2646 22.7416 14.238 22.6484L13.1446 19.4484V19.515ZM8.95798 16.8616H12.3446C12.2646 16.5816 12.1579 16.2484 12.0379 15.9016C11.9179 15.5416 11.7979 15.155 11.6779 14.755C11.5446 14.3416 11.4246 13.9416 11.2912 13.5284C11.1579 13.1151 11.038 12.7284 10.9312 12.3416C10.8246 11.9684 10.7312 11.6216 10.6379 11.3016H10.6112C10.4912 11.875 10.3446 12.4484 10.1579 13.0216C9.95786 13.6616 9.75786 14.3284 9.54461 14.995C9.37123 15.675 9.15786 16.3016 8.95798 16.8616ZM25.2246 18.315H20.998C21.0512 18.7284 21.1846 19.1416 21.4112 19.5016C21.6512 19.8616 21.9846 20.1416 22.3846 20.3016C22.918 20.5284 23.5046 20.6484 24.0912 20.635C24.558 20.6216 25.0246 20.5816 25.478 20.4884C25.8846 20.4352 26.2831 20.3322 26.6646 20.1816C26.7312 20.1284 26.7712 20.155 26.7712 20.2884V22.3284C26.7712 22.3816 26.758 22.435 26.7446 22.4884C26.718 22.5284 26.6912 22.555 26.6512 22.5816C26.2248 22.7689 25.7771 22.9033 25.318 22.9816C24.6943 23.1016 24.0596 23.1553 23.4246 23.1416C22.4112 23.1416 21.558 22.9816 20.8646 22.675C20.2112 22.395 19.638 21.955 19.1846 21.4084C18.7625 20.8947 18.4494 20.3003 18.2646 19.6616C18.078 19.035 17.9846 18.3816 17.9846 17.715C17.9846 16.995 18.0912 16.2884 18.318 15.595C18.5305 14.9274 18.8701 14.3071 19.318 13.7684C19.758 13.235 20.3046 12.8084 20.9312 12.5016C21.558 12.195 22.3046 12.0884 23.158 12.0884C23.8646 12.075 24.5712 12.2084 25.2246 12.5016C25.7712 12.7416 26.2512 13.1016 26.6246 13.5684C26.9712 14.0216 27.2512 14.5284 27.4246 15.0884C27.598 15.6216 27.678 16.1684 27.678 16.715C27.678 17.035 27.6646 17.315 27.6512 17.5684C27.6246 17.8216 27.6112 18.0084 27.598 18.1284C27.5846 18.2216 27.5046 18.3016 27.4112 18.3016C27.3312 18.3016 27.1846 18.315 26.9712 18.3284C26.758 18.355 26.5046 18.3684 26.198 18.3684C25.8912 18.3684 25.5712 18.315 25.2246 18.315ZM20.998 16.3684H23.8112C24.158 16.3684 24.4112 16.3684 24.5712 16.355C24.678 16.3416 24.7846 16.315 24.878 16.2484V16.115C24.8784 15.9473 24.8514 15.7806 24.798 15.6216C24.558 14.875 23.8512 14.3684 23.0646 14.395C22.7027 14.3747 22.3427 14.4596 22.0281 14.6394C21.7134 14.8193 21.4575 15.0863 21.2912 15.4084C21.1312 15.715 21.038 16.035 20.998 16.3684Z" fill="#9999FF"/>
</g>
<defs>
<clipPath id="clip0_1062_82">
<rect width="32" height="32" fill="white"/>
</clipPath>
</defs>
</svg>
