<svg width="32" height="32" viewBox="0 0 32 32" fill="none" xmlns="http://www.w3.org/2000/svg">
<g clip-path="url(#clip0_1062_315)">
<path d="M24.5 0H7.5C3.35786 0 0 3.35786 0 7.5V24.5C0 28.6421 3.35786 32 7.5 32H24.5C28.6421 32 32 28.6421 32 24.5V7.5C32 3.35786 28.6421 0 24.5 0Z" fill="#001E36"/>
<path d="M16.8824 22.3998H8.22154C8.07485 22.3998 8.0016 22.3192 8.00177 22.1579V8.19964C7.99792 8.17277 8.00038 8.14537 8.00895 8.11961C8.01753 8.09386 8.03198 8.07045 8.05117 8.05125C8.07036 8.03205 8.09376 8.01758 8.11951 8.00899C8.14526 8.0004 8.17265 7.99792 8.19953 8.00175H10.8814C10.9023 7.9988 10.9236 8.00076 10.9436 8.00745C10.9636 8.01415 10.9818 8.02541 10.9967 8.04035C11.0117 8.05528 11.0229 8.07348 11.0296 8.0935C11.0363 8.11353 11.0382 8.13483 11.0352 8.15573V19.6303H17.344C17.4758 19.6303 17.5271 19.6962 17.498 19.8281L17.1022 22.2021C17.1013 22.2345 17.0928 22.2662 17.0776 22.2948C17.0623 22.3234 17.0406 22.3481 17.0142 22.3669C16.9735 22.3881 16.9283 22.3994 16.8824 22.4M19.0584 11.4749H21.4544C21.5881 11.4762 21.7048 11.5658 21.7401 11.6948C21.7925 11.7911 21.8296 11.8949 21.8502 12.0025C21.8808 12.1441 21.9027 12.287 21.916 12.4312C21.9305 12.585 21.9379 12.7499 21.938 12.9258C22.3489 12.4473 22.8444 12.0486 23.3998 11.7497C24.0236 11.4124 24.7241 11.242 25.4332 11.2551C25.4601 11.2513 25.4875 11.2538 25.5132 11.2624C25.539 11.271 25.5624 11.2854 25.5815 11.3046C25.6007 11.3238 25.6152 11.3472 25.6238 11.373C25.6323 11.3987 25.6348 11.4261 25.631 11.453V14.1129C25.631 14.2155 25.5577 14.2668 25.4112 14.2667C24.5257 14.2119 23.64 14.3702 22.8283 14.7283C22.5525 14.8477 22.3024 15.0194 22.0919 15.2339V22.2022C22.0919 22.334 22.0333 22.4 21.916 22.4H19.2562C19.2263 22.4042 19.1959 22.4015 19.1672 22.392C19.1386 22.3824 19.1126 22.3664 19.0913 22.3451C19.07 22.3237 19.0539 22.2977 19.0444 22.2691C19.0348 22.2405 19.0321 22.21 19.0364 22.1802V14.6183C19.0364 14.4343 19.0352 14.2441 19.0328 14.0478L19.0283 13.7491C19.0275 13.6985 19.0265 13.6475 19.0254 13.5962C19.0198 13.329 19.0122 13.0617 19.0026 12.7946L18.9924 12.5301C18.9826 12.2281 18.9533 11.9271 18.9046 11.6289C18.8994 11.609 18.8992 11.5881 18.9039 11.5681C18.9087 11.548 18.9183 11.5295 18.9318 11.514C18.9454 11.4985 18.9625 11.4866 18.9818 11.4792C19.001 11.4719 19.0217 11.4693 19.0421 11.4718L19.0584 11.4749Z" fill="#31A8FF"/>
</g>
<defs>
<clipPath id="clip0_1062_315">
<rect width="32" height="32" fill="white"/>
</clipPath>
</defs>
</svg>
