<svg width="32" height="32" viewBox="0 0 32 32" fill="none" xmlns="http://www.w3.org/2000/svg">
<g clip-path="url(#clip0_1062_217)">
<path d="M24.5 0H7.5C3.35786 0 0 3.35786 0 7.5V24.5C0 28.6421 3.35786 32 7.5 32H24.5C28.6421 32 32 28.6421 32 24.5V7.5C32 3.35786 28.6421 0 24.5 0Z" fill="#00005B"/>
<path d="M6.75 22.835V9.10163C6.75 9.00838 6.79 8.955 6.88338 8.955C7.11 8.955 7.32338 8.955 7.63 8.94162C7.95 8.92837 8.28338 8.92837 8.64338 8.915C9.00338 8.90162 9.39 8.90163 9.80338 8.88838C10.2166 8.875 10.6166 8.875 11.0166 8.875C12.11 8.875 13.0166 9.00837 13.7634 9.28837C14.4327 9.51569 15.043 9.88914 15.55 10.3816C15.9795 10.8128 16.3115 11.3311 16.5234 11.9016C16.7234 12.4616 16.83 13.035 16.83 13.635C16.83 14.7817 16.5633 15.7283 16.03 16.475C15.4966 17.2216 14.75 17.7816 13.8834 18.1016C12.9766 18.435 11.9766 18.555 10.8834 18.555C10.5634 18.555 10.35 18.555 10.2166 18.5416C10.0834 18.5284 9.89663 18.5284 9.64338 18.5284V22.8084C9.65663 22.9016 9.59 22.9816 9.49662 22.995H6.91C6.80337 22.995 6.75 22.9416 6.75 22.8216V22.835ZM9.65662 11.5416V16.0216C9.84337 16.035 10.0166 16.0484 10.1766 16.0484H10.8834C11.4034 16.0484 11.9234 15.9684 12.4166 15.8084C12.8434 15.6884 13.2166 15.435 13.51 15.1016C13.79 14.7684 13.9234 14.315 13.9234 13.7284C13.9359 13.3117 13.8295 12.9001 13.6166 12.5416C13.39 12.195 13.07 11.9284 12.6834 11.7816C12.19 11.5816 11.6566 11.5016 11.11 11.515C10.7634 11.515 10.4566 11.515 10.2034 11.5284C9.93662 11.515 9.75 11.5284 9.65662 11.5416ZM18.75 12.3284H21.0834C21.2168 12.3284 21.3234 12.4216 21.3634 12.5416C21.4034 12.6484 21.43 12.755 21.4434 12.875C21.47 13.0084 21.4968 13.155 21.51 13.2884C21.5234 13.435 21.5368 13.595 21.5368 13.7684C21.9371 13.301 22.4208 12.9121 22.9634 12.6216C23.5768 12.275 24.2834 12.1016 24.99 12.1016C25.0834 12.0884 25.1634 12.155 25.1768 12.2484V14.9016C25.1768 15.0084 25.11 15.0484 24.9634 15.0484C24.4834 15.035 23.99 15.075 23.5234 15.1816C23.1367 15.2616 22.7634 15.3816 22.4034 15.5416C22.15 15.6616 21.91 15.8216 21.7234 16.035V22.835C21.7234 22.9684 21.67 23.0216 21.55 23.0216H18.9234C18.8167 23.035 18.7234 22.9684 18.71 22.8616V15.4216C18.71 15.1016 18.71 14.7684 18.6968 14.4216C18.6834 14.075 18.6834 13.7284 18.67 13.3816C18.67 13.075 18.6434 12.7816 18.6168 12.475C18.6034 12.4084 18.6434 12.3416 18.71 12.3284C18.71 12.315 18.7368 12.315 18.75 12.3284Z" fill="#9999FF"/>
</g>
<defs>
<clipPath id="clip0_1062_217">
<rect width="32" height="32" fill="white"/>
</clipPath>
</defs>
</svg>
