<svg width="32" height="32" viewBox="0 0 32 32" fill="none" xmlns="http://www.w3.org/2000/svg">
<g clip-path="url(#clip0_1062_222)">
<path d="M24.5 0H7.5C3.35786 0 0 3.35786 0 7.5V24.5C0 28.6421 3.35786 32 7.5 32H24.5C28.6421 32 32 28.6421 32 24.5V7.5C32 3.35786 28.6421 0 24.5 0Z" fill="#470137"/>
<path d="M16.7799 10.0269L13.0299 16.2144L17.0299 22.7769C17.0549 22.8269 17.0674 22.8769 17.0549 22.9269C17.0424 22.9769 16.9924 22.9394 16.9174 22.9519H14.0549C13.8549 22.9519 13.7174 22.9394 13.6299 22.8144C13.3674 22.2894 13.0924 21.7769 12.8299 21.2519C12.5674 20.7394 12.2799 20.2144 11.9799 19.6769C11.6799 19.1394 11.3799 18.6019 11.0799 18.0519H11.0549C10.7924 18.5894 10.5049 19.1269 10.2174 19.6644C9.9299 20.2019 9.6424 20.7394 9.3674 21.2644C9.0799 21.7894 8.7924 22.3269 8.5049 22.8394C8.4549 22.9644 8.3549 22.9769 8.2174 22.9769H5.4674C5.4174 22.9769 5.3799 23.0019 5.3799 22.9394C5.3674 22.8894 5.3799 22.8394 5.4049 22.8019L9.2924 16.4269L5.5049 10.0144C5.4674 9.96438 5.4549 9.91438 5.4799 9.88938C5.5049 9.85188 5.5549 9.83938 5.6049 9.83938H8.4424C8.5049 9.83938 8.5674 9.85188 8.6174 9.86438C8.6674 9.88938 8.7049 9.92688 8.7424 9.97688C8.9799 10.5144 9.2549 11.0519 9.5424 11.5894C9.8424 12.1269 10.1299 12.6519 10.4424 13.1769C10.7424 13.7019 11.0174 14.2269 11.2799 14.7644H11.3049C11.5674 14.2144 11.8424 13.6769 12.1174 13.1519C12.3924 12.6269 12.6799 12.1019 12.9674 11.5769C13.2549 11.0519 13.5299 10.5144 13.8049 10.0019C13.8174 9.95188 13.8424 9.90188 13.8799 9.87688C13.9299 9.85188 13.9799 9.83938 14.0424 9.85188H16.6799C16.7424 9.83938 16.8049 9.87688 16.8174 9.93938C16.8299 9.95188 16.8049 10.0019 16.7799 10.0269ZM22.5549 23.2145C21.6299 23.227 20.7049 23.0395 19.8674 22.652C19.0799 22.2895 18.4299 21.6895 17.9799 20.952C17.5174 20.1895 17.2924 19.2395 17.2924 18.102C17.2799 17.177 17.5174 16.2645 17.9799 15.4645C18.4549 14.652 19.1424 13.977 19.9674 13.527C20.8424 13.0395 21.8924 12.802 23.1299 12.802C23.1924 12.802 23.2799 12.802 23.3924 12.8145C23.5049 12.827 23.6299 12.827 23.7799 12.8395V8.8895C23.7799 8.802 23.8174 8.752 23.9049 8.752H26.4424C26.5049 8.7395 26.5549 8.7895 26.5674 8.8395V20.7645C26.5674 20.9895 26.5799 21.2395 26.5924 21.5145C26.6174 21.777 26.6299 22.027 26.6424 22.2395C26.6424 22.327 26.6049 22.402 26.5174 22.4395C25.8674 22.7145 25.1799 22.9145 24.4799 23.0395C23.8424 23.152 23.2049 23.2145 22.5549 23.2145ZM23.7799 20.7145V15.2145C23.6674 15.1895 23.5549 15.1645 23.4424 15.152C23.3049 15.1395 23.1674 15.127 23.0299 15.127C22.5424 15.127 22.0549 15.227 21.6174 15.452C21.1924 15.6645 20.8299 15.977 20.5549 16.377C20.2799 16.777 20.1424 17.3145 20.1424 17.9645C20.1299 18.402 20.2049 18.8395 20.3549 19.252C20.4799 19.5895 20.6674 19.8895 20.9174 20.1395C21.1549 20.3645 21.4424 20.5395 21.7674 20.6395C22.1049 20.752 22.4549 20.802 22.8049 20.802C22.9924 20.802 23.1674 20.7895 23.3299 20.777C23.4924 20.7895 23.6299 20.7645 23.7799 20.7145Z" fill="#FF61F6"/>
</g>
<defs>
<clipPath id="clip0_1062_222">
<rect width="32" height="32" fill="white"/>
</clipPath>
</defs>
</svg>
