<svg width="32" height="32" viewBox="0 0 32 32" fill="none" xmlns="http://www.w3.org/2000/svg">
<path opacity="0.25" d="M15.9999 2.66998C8.63992 2.66998 2.65991 8.63998 2.65991 16C2.65991 23.36 8.63992 29.33 15.9999 29.33C20.4199 29.33 23.9999 23.37 23.9999 16C23.9999 8.62998 20.4199 2.66998 15.9999 2.66998ZM11.3199 21.33C10.2199 21.33 9.31992 20.44 9.31992 19.33C9.31992 18.78 9.53991 18.28 9.91991 17.92C10.2799 17.56 10.7799 17.33 11.3199 17.33C12.4399 17.33 13.3199 18.23 13.3199 19.33C13.3199 20.43 12.4399 21.33 11.3199 21.33Z" fill="currentColor"/>
<path d="M29.3299 16C29.3299 23.36 23.3599 29.33 15.9999 29.33C8.63992 29.33 2.66992 23.36 2.66992 16C2.66992 8.63998 8.63992 2.66998 15.9999 2.66998C23.3599 2.66998 29.3299 8.63998 29.3299 16Z" stroke="currentColor" stroke-width="2.5" stroke-linecap="round" stroke-linejoin="round"/>
<path d="M16.0001 29.33C20.4201 29.33 24.0001 23.36 24.0001 16C24.0001 8.63998 20.4201 2.66998 16.0001 2.66998M14.6601 9.32998H14.6701M13.3301 19.33C13.3301 20.43 12.4301 21.33 11.3301 21.33C10.2301 21.33 9.33008 20.43 9.33008 19.33C9.33008 18.23 10.2301 17.33 11.3301 17.33C12.4301 17.33 13.3301 18.23 13.3301 19.33Z" stroke="currentColor" stroke-width="2.5" stroke-linecap="round" stroke-linejoin="round"/>
</svg>
