<svg width="32" height="32" viewBox="0 0 32 32" fill="none" xmlns="http://www.w3.org/2000/svg">
<path opacity="0.25" d="M16 10.6666C21.8911 10.6666 26.6667 8.87576 26.6667 6.66663V25.3333C26.6667 27.5425 21.8911 29.3333 16 29.3333C10.109 29.3333 5.33337 27.5425 5.33337 25.3333V6.66663C5.33337 8.87576 10.109 10.6666 16 10.6666Z" fill="currentColor"/>
<path d="M16 10.6666C21.8911 10.6666 26.6667 8.87577 26.6667 6.66663C26.6667 4.45749 21.8911 2.66663 16 2.66663C10.109 2.66663 5.33337 4.45749 5.33337 6.66663C5.33337 8.87577 10.109 10.6666 16 10.6666Z" stroke="currentColor" stroke-width="2.5"/>
<path d="M9.33337 14.4561C10.1355 14.6973 11.0325 14.8958 12 15.0427" stroke="currentColor" stroke-width="2.5" stroke-linecap="round"/>
<path d="M26.6667 16C26.6667 18.2092 21.8911 20 16 20C10.109 20 5.33337 18.2092 5.33337 16" stroke="currentColor" stroke-width="2.5"/>
<path d="M9.33337 23.7893C10.1355 24.0305 11.0325 24.229 12 24.376" stroke="currentColor" stroke-width="2.5" stroke-linecap="round"/>
<path d="M26.6667 6.66663V25.3333C26.6667 27.5425 21.8911 29.3333 16 29.3333C10.109 29.3333 5.33337 27.5425 5.33337 25.3333V6.66663" stroke="currentColor" stroke-width="2.5"/>
</svg>
