<svg width="32" height="32" viewBox="0 0 32 32" fill="none" xmlns="http://www.w3.org/2000/svg">
<path opacity="0.25" d="M9.8232 16.228L12.6684 18.6667V5.66668C12.6684 4.37801 13.713 3.33334 15.0017 3.33334C16.2903 3.33334 17.335 4.37801 17.335 5.66668V12.6667L21.3189 13.3034C23.8904 13.6892 25.1762 13.882 26.0818 14.4245C27.5778 15.3208 28.6616 16.6667 28.6616 18.6315C28.6616 20 28.3233 20.9181 27.501 23.3849C26.9793 24.9503 26.7183 25.7328 26.293 26.3524C25.5926 27.3724 24.5593 28.1171 23.3702 28.4589C22.6479 28.6667 21.823 28.6667 20.173 28.6667H18.7745C16.5809 28.6667 15.4841 28.6667 14.5077 28.2641C14.3326 28.192 14.1614 28.1105 13.995 28.0201C13.0669 27.5161 12.3753 26.6649 10.9921 24.9625L6.51408 19.4511C5.82596 18.6041 5.82136 17.3921 6.50306 16.54C7.3224 15.5159 8.82736 15.3744 9.8232 16.228Z" fill="currentColor"/>
<path d="M9.8232 16.228L12.6684 18.6667V5.66668C12.6684 4.37801 13.713 3.33334 15.0017 3.33334C16.2903 3.33334 17.335 4.37801 17.335 5.66668V12.6667L21.3189 13.3034C23.8904 13.6892 25.1762 13.882 26.0818 14.4245C27.5778 15.3208 28.6616 16.6667 28.6616 18.6315C28.6616 20 28.3233 20.9181 27.501 23.3849C26.9793 24.9503 26.7183 25.7328 26.293 26.3524C25.5926 27.3724 24.5593 28.1171 23.3702 28.4589C22.6479 28.6667 21.823 28.6667 20.173 28.6667H18.7745C16.5809 28.6667 15.4841 28.6667 14.5077 28.2641C14.3326 28.192 14.1614 28.1105 13.995 28.0201C13.0669 27.5161 12.3753 26.6649 10.9921 24.9625L6.51408 19.4511C5.82596 18.6041 5.82136 17.3921 6.50306 16.54C7.3224 15.5159 8.82736 15.3744 9.8232 16.228Z" stroke="currentColor" stroke-width="2.5" stroke-linecap="round" stroke-linejoin="round"/>
<path d="M26.6666 6.00001H21.3333M26.6666 6.00001C26.6666 6.74692 24.6742 8.14238 23.9999 8.66668M26.6666 6.00001C26.6666 5.2531 24.6742 3.85764 23.9999 3.33334" stroke="currentColor" stroke-width="2.5" stroke-linecap="round" stroke-linejoin="round"/>
<path d="M3.33325 6.00001H8.66659M3.33325 6.00001C3.33325 5.2531 5.32565 3.85764 5.99992 3.33334M3.33325 6.00001C3.33325 6.74692 5.32565 8.14238 5.99992 8.66668" stroke="currentColor" stroke-width="2.5" stroke-linecap="round" stroke-linejoin="round"/>
</svg>
