<svg width="32" height="32" viewBox="0 0 32 32" fill="none" xmlns="http://www.w3.org/2000/svg">
<g opacity="0.25">
<path d="M24 16C24 15.3788 24 15.0681 24.1015 14.8231C24.2368 14.4964 24.4964 14.2368 24.8231 14.1015C25.0681 14 25.3788 14 26 14C26.6212 14 26.9319 14 27.1769 14.1015C27.5036 14.2368 27.7632 14.4964 27.8985 14.8231C28 15.0681 28 15.3788 28 16C28 16.6212 28 16.9319 27.8985 17.1769C27.7632 17.5036 27.5036 17.7632 27.1769 17.8985C26.9319 18 26.6212 18 26 18C25.3788 18 25.0681 18 24.8231 17.8985C24.4964 17.7632 24.2368 17.5036 24.1015 17.1769C24 16.9319 24 16.6212 24 16Z" fill="currentColor"/>
<path d="M14 16C14 15.3788 14 15.0681 14.1015 14.8231C14.2368 14.4964 14.4964 14.2368 14.8231 14.1015C15.0681 14 15.3788 14 16 14C16.6212 14 16.9319 14 17.1769 14.1015C17.5036 14.2368 17.7632 14.4964 17.8985 14.8231C18 15.0681 18 15.3788 18 16C18 16.6212 18 16.9319 17.8985 17.1769C17.7632 17.5036 17.5036 17.7632 17.1769 17.8985C16.9319 18 16.6212 18 16 18C15.3788 18 15.0681 18 14.8231 17.8985C14.4964 17.7632 14.2368 17.5036 14.1015 17.1769C14 16.9319 14 16.6212 14 16Z" fill="currentColor"/>
<path d="M4 16C4 15.3788 4 15.0681 4.10149 14.8231C4.23681 14.4964 4.49639 14.2368 4.82309 14.1015C5.06812 14 5.37875 14 6 14C6.62125 14 6.93188 14 7.17691 14.1015C7.50361 14.2368 7.76319 14.4964 7.89851 14.8231C8 15.0681 8 15.3788 8 16C8 16.6212 8 16.9319 7.89851 17.1769C7.76319 17.5036 7.50361 17.7632 7.17691 17.8985C6.93188 18 6.62125 18 6 18C5.37875 18 5.06812 18 4.82309 17.8985C4.49639 17.7632 4.23681 17.5036 4.10149 17.1769C4 16.9319 4 16.6212 4 16Z" fill="currentColor"/>
</g>
<path d="M26.6667 14H25.3333C24.597 14 24 14.597 24 15.3333V16.6667C24 17.403 24.597 18 25.3333 18H26.6667C27.403 18 28 17.403 28 16.6667V15.3333C28 14.597 27.403 14 26.6667 14Z" stroke="currentColor" stroke-width="2.5"/>
<path d="M16.6667 14H15.3333C14.597 14 14 14.597 14 15.3333V16.6667C14 17.403 14.597 18 15.3333 18H16.6667C17.403 18 18 17.403 18 16.6667V15.3333C18 14.597 17.403 14 16.6667 14Z" stroke="currentColor" stroke-width="2.5"/>
<path d="M6.66667 14H5.33333C4.59695 14 4 14.597 4 15.3333V16.6667C4 17.403 4.59695 18 5.33333 18H6.66667C7.40305 18 8 17.403 8 16.6667V15.3333C8 14.597 7.40305 14 6.66667 14Z" stroke="currentColor" stroke-width="2.5"/>
</svg>
