<svg width="32" height="32" viewBox="0 0 32 32" fill="none" xmlns="http://www.w3.org/2000/svg">
<path opacity="0.25" d="M15.9999 28.6667C21.971 28.6667 24.9566 28.6667 26.8117 26.8117C28.6666 24.9567 28.6666 21.9711 28.6666 16C28.6666 10.0289 28.6666 7.04332 26.8117 5.18833C24.9566 3.33334 21.971 3.33334 15.9999 3.33334C10.0288 3.33334 7.04324 3.33334 5.18824 5.18833C3.33325 7.04333 3.33325 10.0289 3.33325 16C3.33325 21.9711 3.33325 24.9567 5.18824 26.8117C7.04323 28.6667 10.0288 28.6667 15.9999 28.6667Z" fill="currentColor"/>
<path d="M15.9999 28.6667C21.971 28.6667 24.9566 28.6667 26.8117 26.8117C28.6666 24.9567 28.6666 21.9711 28.6666 16C28.6666 10.0289 28.6666 7.04332 26.8117 5.18833C24.9566 3.33334 21.971 3.33334 15.9999 3.33334C10.0288 3.33334 7.04324 3.33334 5.18824 5.18833C3.33325 7.04333 3.33325 10.0289 3.33325 16C3.33325 21.9711 3.33325 24.9567 5.18824 26.8117C7.04323 28.6667 10.0288 28.6667 15.9999 28.6667Z" stroke="currentColor" stroke-width="2.5" stroke-linecap="round" stroke-linejoin="round"/>
<path d="M20 12L12 19.9995M20 20L12 12.0005" stroke="currentColor" stroke-width="2.5" stroke-linecap="round" stroke-linejoin="round"/>
</svg>
