<svg width="32" height="32" viewBox="0 0 32 32" fill="none" xmlns="http://www.w3.org/2000/svg">
<path opacity="0.25" fill-rule="evenodd" clip-rule="evenodd" d="M29.3334 16C29.3334 15.5793 29.1307 15.2951 28.7254 14.7267C26.9039 12.1726 22.2523 6.66666 16.0001 6.66666C9.74779 6.66666 5.09621 12.1726 3.2748 14.7267C2.86943 15.2951 2.66675 15.5793 2.66675 16C2.66675 16.4207 2.86943 16.7049 3.2748 17.2733C5.09621 19.8275 9.74779 25.3333 16.0001 25.3333C22.2523 25.3333 26.9039 19.8275 28.7254 17.2733C29.1307 16.7049 29.3334 16.4207 29.3334 16ZM16.0001 12C18.2093 12 20.0001 13.7908 20.0001 16C20.0001 18.2092 18.2093 20 16.0001 20C13.7909 20 12.0001 18.2092 12.0001 16C12.0001 13.7908 13.7909 12 16.0001 12Z" fill="currentColor"/>
<path d="M28.7254 14.7267C29.1307 15.2951 29.3334 15.5793 29.3334 16C29.3334 16.4207 29.1307 16.7049 28.7254 17.2733C26.9039 19.8275 22.2523 25.3333 16.0001 25.3333C9.74779 25.3333 5.09621 19.8275 3.2748 17.2733C2.86943 16.7049 2.66675 16.4207 2.66675 16C2.66675 15.5793 2.86943 15.2951 3.2748 14.7267C5.09621 12.1726 9.74779 6.66666 16.0001 6.66666C22.2523 6.66666 26.9039 12.1726 28.7254 14.7267Z" stroke="currentColor" stroke-width="2.5"/>
<path d="M20 16C20 13.7908 18.2092 12 16 12C13.7908 12 12 13.7908 12 16C12 18.2092 13.7908 20 16 20C18.2092 20 20 18.2092 20 16Z" stroke="currentColor" stroke-width="2.5"/>
</svg>
