<svg width="32" height="32" viewBox="0 0 32 32" fill="none" xmlns="http://www.w3.org/2000/svg">
<g clip-path="url(#clip0_1062_162)">
<path d="M24.5 0H7.5C3.35786 0 0 3.35786 0 7.5V24.5C0 28.6421 3.35786 32 7.5 32H24.5C28.6421 32 32 28.6421 32 24.5V7.5C32 3.35786 28.6421 0 24.5 0Z" fill="#042f27"/>
<path fill-rule="evenodd" clip-rule="evenodd" d="M19.7149 4.12638C19.9191 4.37988 20.0231 4.722 20.2314 5.406L24.7809 20.3511C23.072 19.4644 21.2379 18.8434 19.3417 18.5096L16.3796 8.49963C16.362 8.43999 16.3301 8.38551 16.2868 8.34083C16.2436 8.29616 16.1901 8.26261 16.1311 8.24305C16.072 8.22349 16.0091 8.2185 15.9477 8.2285C15.8863 8.23851 15.8283 8.26321 15.7785 8.3005C15.7119 8.3505 15.6633 8.42075 15.6399 8.50075L12.7135 18.5046C10.8089 18.8369 8.96635 19.4588 7.25 20.3489L11.8216 5.40263C12.0307 4.71963 12.135 4.37825 12.3392 4.12525C12.5195 3.90181 12.754 3.7283 13.0204 3.62125C13.3221 3.5 13.6791 3.5 14.3934 3.5H17.6588C18.3739 3.5 18.7314 3.5 19.0334 3.6215C19.3 3.72882 19.5346 3.90256 19.7149 4.12638Z" fill="white"/>
<path fill-rule="evenodd" clip-rule="evenodd" d="M20.2592 21.0624C19.5092 21.7038 18.0122 22.141 16.288 22.141C14.1716 22.141 12.3977 21.4821 11.9271 20.5961C11.7588 21.104 11.7211 21.6851 11.7211 22.0565C11.7211 22.0565 11.6102 23.8796 12.8782 25.1476C12.8783 24.8314 13.0039 24.5282 13.2275 24.3047C13.4511 24.0811 13.7543 23.9554 14.0705 23.9554C15.199 23.9554 15.1977 24.94 15.1966 25.7389V25.8101C15.1966 27.0226 15.9376 28.062 16.9915 28.5C16.8292 28.1661 16.7452 27.7997 16.7457 27.4285C16.7457 26.2721 17.4247 25.8415 18.2137 25.3413C18.8415 24.9431 19.539 24.5008 20.0197 23.6133C20.2786 23.1353 20.4137 22.6001 20.4128 22.0565C20.4128 21.7099 20.359 21.3759 20.2592 21.0624Z" fill="#FF5D01"/>
<path fill-rule="evenodd" clip-rule="evenodd" d="M20.2592 21.0624C19.5092 21.7038 18.0122 22.141 16.288 22.141C14.1716 22.141 12.3977 21.4821 11.9271 20.5961C11.7588 21.104 11.7211 21.6851 11.7211 22.0565C11.7211 22.0565 11.6102 23.8796 12.8782 25.1476C12.8783 24.8314 13.0039 24.5282 13.2275 24.3047C13.4511 24.0811 13.7543 23.9554 14.0705 23.9554C15.199 23.9554 15.1977 24.94 15.1966 25.7389V25.8101C15.1966 27.0226 15.9376 28.062 16.9915 28.5C16.8292 28.1661 16.7452 27.7997 16.7457 27.4285C16.7457 26.2721 17.4247 25.8415 18.2137 25.3413C18.8415 24.9431 19.539 24.5008 20.0197 23.6133C20.2786 23.1353 20.4137 22.6001 20.4128 22.0565C20.4128 21.7099 20.359 21.3759 20.2592 21.0624Z" fill="url(#paint0_linear_1062_162)"/>
</g>
<defs>
<linearGradient id="paint0_linear_1062_162" x1="23.6361" y1="15.8456" x2="19.1956" y2="25.1415" gradientUnits="userSpaceOnUse">
<stop stop-color="#FF1639"/>
<stop offset="1" stop-color="#FF1639" stop-opacity="0"/>
</linearGradient>
<clipPath id="clip0_1062_162">
<rect width="32" height="32" fill="white"/>
</clipPath>
</defs>
</svg>
