<svg width="32" height="32" viewBox="0 0 32 32" fill="none" xmlns="http://www.w3.org/2000/svg">
<g clip-path="url(#clip0_1062_133)">
<path d="M24.5 0H7.5C3.35786 0 0 3.35786 0 7.5V24.5C0 28.6421 3.35786 32 7.5 32H24.5C28.6421 32 32 28.6421 32 24.5V7.5C32 3.35786 28.6421 0 24.5 0Z" opacity="0.3" fill="#042f27"/>
<path d="M18.1168 4.75775L25.0886 4.75L13.3918 16.4408L10.3434 19.4721L6.875 15.9995L18.1168 4.75775ZM18.0519 15.1961C18.1424 15.0766 18.3089 15.1356 18.4352 15.1202L25.0826 15.1219L19.0243 21.1744L15.5379 17.7094L18.0519 15.1961Z" fill="#44D1FD"/>
<path d="M12.0626 21.1802L15.5379 17.7094L19.0242 21.1744L19.0387 21.1897L15.5387 24.6572L12.0626 21.1802Z" fill="#1FBCFD"/>
<path d="M15.5387 24.6573L19.0387 21.1898L25.0851 27.2421C22.8076 27.2473 20.5308 27.2404 18.2542 27.2455C18.1244 27.2745 18.0442 27.1559 17.9613 27.0825L15.5387 24.6573Z" fill="#08589C"/>
</g>
<defs>
<clipPath id="clip0_1062_133">
<rect width="32" height="32" fill="white"/>
</clipPath>
</defs>
</svg>
