<svg width="32" height="32" viewBox="0 0 32 32" fill="none" xmlns="http://www.w3.org/2000/svg">
<g clip-path="url(#clip0_1062_184)">
<path d="M24.5 0H7.5C3.35786 0 0 3.35786 0 7.5V24.5C0 28.6421 3.35786 32 7.5 32H24.5C28.6421 32 32 28.6421 32 24.5V7.5C32 3.35786 28.6421 0 24.5 0Z" opacity="0.3" fill="#042f27"/>
<path d="M15.1814 3.50678C15.1276 3.51165 14.9565 3.52878 14.8025 3.5409C11.2517 3.86103 7.92575 5.77703 5.81912 8.72178C4.64625 10.3592 3.89587 12.2164 3.6125 14.1838C3.51237 14.8705 3.50012 15.0734 3.50012 16.0044C3.50012 16.9355 3.51237 17.1384 3.61262 17.825C4.29187 22.5195 7.63262 26.4639 12.1634 27.9253C12.9747 28.1868 13.83 28.3652 14.8026 28.4727C15.1815 28.5142 16.8187 28.5142 17.1976 28.4727C18.8765 28.2869 20.2987 27.8715 21.7015 27.1554C21.9165 27.0455 21.9581 27.0162 21.9287 26.9918C21.9092 26.977 20.9927 25.7478 19.8931 24.262L17.8941 21.5617L15.3891 17.8544C14.0109 15.8163 12.877 14.1495 12.8671 14.1495C12.8574 14.1472 12.8476 15.7943 12.8427 17.8055C12.8354 21.327 12.833 21.4688 12.789 21.5518C12.7255 21.6715 12.6766 21.7204 12.5739 21.7743C12.4957 21.8133 12.4272 21.8207 12.0582 21.8207H11.6355L11.523 21.7498C11.4533 21.7062 11.3968 21.6445 11.3592 21.5714L11.308 21.4614L11.313 16.5617L11.3202 11.6594L11.396 11.564C11.4351 11.5128 11.5182 11.4468 11.5769 11.415C11.677 11.3662 11.7161 11.3613 12.1389 11.3613C12.6375 11.3613 12.7205 11.3808 12.8501 11.5225C12.8867 11.5617 14.243 13.6047 15.8657 16.0655C17.5086 18.5564 19.1524 21.0466 20.7972 23.5362L22.7767 26.5348L22.877 26.4688C23.764 25.892 24.7025 25.0709 25.4454 24.2155C27.0265 22.3998 28.0456 20.1858 28.3877 17.825C28.4879 17.1384 28.5001 16.9355 28.5001 16.0044C28.5001 15.0733 28.4879 14.8705 28.3877 14.1838C27.7084 9.48928 24.3676 5.54503 19.8369 4.08365C19.0377 3.82453 18.1874 3.64615 17.2342 3.53865C16.9996 3.51415 15.3842 3.4874 15.1815 3.5069M20.2987 11.068C20.416 11.1267 20.5114 11.239 20.5456 11.3563C20.5651 11.4199 20.57 12.7787 20.5651 15.8407L20.5577 20.2347L19.7831 19.0469L19.006 17.8593V14.6653C19.006 12.6003 19.0157 11.4394 19.0304 11.3832C19.0695 11.2464 19.155 11.1389 19.2724 11.0753C19.3725 11.024 19.4092 11.019 19.7929 11.019C20.1546 11.019 20.2181 11.024 20.2987 11.068Z" fill="white"/>
</g>
<defs>
<clipPath id="clip0_1062_184">
<rect width="32" height="32" fill="white"/>
</clipPath>
</defs>
</svg>
