<svg width="32" height="32" viewBox="0 0 32 32" fill="none" xmlns="http://www.w3.org/2000/svg">
<g clip-path="url(#clip0_1062_189)">
<path d="M24.5 0H7.5C3.35786 0 0 3.35786 0 7.5V24.5C0 28.6421 3.35786 32 7.5 32H24.5C28.6421 32 32 28.6421 32 24.5V7.5C32 3.35786 28.6421 0 24.5 0Z" fill="#042f27"/>
<path d="M17.3484 23.6666H25.9449C26.2179 23.6667 26.4861 23.5955 26.7226 23.4601C26.9586 23.3252 27.1549 23.1305 27.2919 22.8957C27.4282 22.6617 27.5 22.3957 27.4998 22.1249C27.4997 21.8541 27.4277 21.5881 27.2911 21.3542L21.518 11.4435C21.381 11.2088 21.1848 11.0142 20.9489 10.8792C20.7121 10.7438 20.444 10.6726 20.1713 10.6726C19.8985 10.6726 19.6304 10.7438 19.3936 10.8792C19.1577 11.0142 18.9615 11.2088 18.8245 11.4435L17.3484 13.9794L14.4621 9.02062C14.3251 8.78591 14.1287 8.59137 13.8928 8.4565C13.6559 8.32114 13.3878 8.24994 13.115 8.24994C12.8422 8.24994 12.5741 8.32114 12.3373 8.4565C12.1013 8.59137 11.9049 8.78591 11.7679 9.02062L4.58375 21.3542C4.44723 21.5881 4.37523 21.8541 4.37512 22.1249C4.37501 22.3957 4.44679 22.6617 4.58313 22.8957C4.72011 23.1305 4.91642 23.3252 5.15238 23.4601C5.38915 23.5957 5.6573 23.6669 5.93013 23.6666H11.3264C13.4644 23.6666 15.0411 22.7359 16.126 20.92L18.76 16.3989L20.1709 13.9794L24.405 21.2471H18.76L17.3484 23.6666ZM11.2384 21.2446L7.4725 21.2437L13.1175 11.554L15.9341 16.3989L14.0483 19.6371C13.3278 20.8154 12.5094 21.2446 11.2384 21.2446Z" fill="#00DC82"/>
</g>
<defs>
<clipPath id="clip0_1062_189">
<rect width="32" height="32" fill="white"/>
</clipPath>
</defs>
</svg>
