<svg width="32" height="32" viewBox="0 0 32 32" fill="none" xmlns="http://www.w3.org/2000/svg">
<g clip-path="url(#clip0_1062_297)">
<path d="M24.5 0H7.5C3.35786 0 0 3.35786 0 7.5V24.5C0 28.6421 3.35786 32 7.5 32H24.5C28.6421 32 32 28.6421 32 24.5V7.5C32 3.35786 28.6421 0 24.5 0Z" opacity="0.3" fill="#042f27"/>
<path d="M2.125 15H29.7051V24.1386C29.7051 26.2861 27.9506 27.9306 25.6606 27.9306H6.16937C3.879 27.9306 2.125 26.2861 2.125 24.1386V15Z" fill="black"/>
<path d="M7.7041 13.6135C6.8511 12.8132 5.46785 12.8132 4.61473 13.6135C3.76173 14.4134 3.76173 15.7102 4.61473 16.5105C5.46773 17.3102 6.85098 17.3102 7.7041 16.5105H24.106C24.9595 17.3102 26.3422 17.3102 27.1957 16.5105C28.0488 15.7102 28.0488 14.4134 27.1957 13.6135C26.3422 12.8132 24.9595 12.8132 24.106 13.6135H7.7041Z" fill="#FFB13B" stroke="black" stroke-width="3.58687"/>
<path d="M11.1987 8.60039C11.1987 7.46851 10.2207 6.55164 9.0141 6.55164C7.8071 6.55164 6.8291 7.46851 6.8291 8.60039C6.8291 9.73164 7.8071 10.6486 9.0141 10.6486L20.6119 21.5236C20.6119 22.655 21.5899 23.572 22.7964 23.572C24.0029 23.572 24.981 22.655 24.981 21.5236C24.981 20.3923 24.0029 19.4754 22.7964 19.4754L11.1987 8.60039Z" fill="#FFB13B" stroke="black" stroke-width="3.59063"/>
<path d="M17.4502 7.37235C18.3032 6.57197 18.3032 5.2751 17.4502 4.47485C16.5966 3.67497 15.2133 3.67497 14.3603 4.47485C13.5073 5.2751 13.5073 6.57197 14.3603 7.37235V22.7517C13.5073 23.5515 13.5073 24.8488 14.3603 25.6486C15.2133 26.449 16.5966 26.449 17.4502 25.6486C18.3032 24.8488 18.3032 23.5515 17.4502 22.7517V7.37235Z" fill="#FFB13B" stroke="black" stroke-width="3.58687"/>
<path d="M22.7964 10.6488C24.0029 10.6488 24.981 9.73176 24.981 8.60039C24.981 7.46851 24.0029 6.55164 22.7964 6.55164C21.5899 6.55164 20.6119 7.46851 20.6119 8.60039L9.0141 19.4754C7.8071 19.4754 6.8291 20.3924 6.8291 21.5236C6.8291 22.655 7.8071 23.572 9.0141 23.572C10.2207 23.572 11.1987 22.655 11.1987 21.5236L22.7964 10.6488Z" fill="#FFB13B" stroke="black" stroke-width="3.59063"/>
<path d="M7.7041 13.6135C6.8511 12.8132 5.46785 12.8132 4.61473 13.6135C3.76173 14.4134 3.76173 15.7102 4.61473 16.5105C5.46773 17.3102 6.85098 17.3102 7.7041 16.5105H24.106C24.9595 17.3102 26.3422 17.3102 27.1957 16.5105C28.0488 15.7102 28.0488 14.4134 27.1957 13.6135C26.3422 12.8132 24.9595 12.8132 24.106 13.6135H7.7041Z" fill="#FFB13B"/>
<path d="M11.1987 8.60039C11.1987 7.46851 10.2207 6.55164 9.0141 6.55164C7.8071 6.55164 6.8291 7.46851 6.8291 8.60039C6.8291 9.73164 7.8071 10.6486 9.0141 10.6486L20.6119 21.5236C20.6119 22.655 21.5899 23.572 22.7964 23.572C24.0029 23.572 24.981 22.655 24.981 21.5236C24.981 20.3923 24.0029 19.4754 22.7964 19.4754L11.1987 8.60039Z" fill="#FFB13B"/>
<path d="M17.4502 7.37235C18.3032 6.57197 18.3032 5.2751 17.4502 4.47485C16.5966 3.67497 15.2133 3.67497 14.3603 4.47485C13.5073 5.2751 13.5073 6.57197 14.3603 7.37235V22.7517C13.5073 23.5515 13.5073 24.8488 14.3603 25.6486C15.2133 26.449 16.5966 26.449 17.4502 25.6486C18.3032 24.8488 18.3032 23.5515 17.4502 22.7517V7.37235Z" fill="#FFB13B"/>
<path d="M22.7964 10.6488C24.0029 10.6488 24.981 9.73164 24.981 8.60039C24.981 7.46851 24.0029 6.55164 22.7964 6.55164C21.5899 6.55164 20.6119 7.46851 20.6119 8.60039L9.0141 19.4754C7.8071 19.4754 6.8291 20.3924 6.8291 21.5236C6.8291 22.655 7.8071 23.572 9.0141 23.572C10.2207 23.572 11.1987 22.655 11.1987 21.5236L22.7964 10.6488Z" fill="#FFB13B"/>
<path d="M2.125 15.125H29.7051V24.2636C29.7051 26.4111 27.9506 28.0556 25.6606 28.0556H6.16937C3.879 28.0556 2.125 26.4111 2.125 24.2636V15.125Z" fill="black" fill-opacity="0.9"/>
<path d="M6.25343 21.5169C5.60655 20.9104 5.20605 20.073 5.20605 19.1482C5.20605 17.2976 6.80718 15.7971 8.7798 15.7971C10.7536 15.7971 12.3541 17.2976 12.3541 19.1482H10.2608C10.2608 18.3816 9.59718 17.7605 8.7798 17.7605C7.96243 17.7605 7.2998 18.3816 7.2998 19.1482C7.2998 19.531 7.46593 19.8781 7.73243 20.1281H7.73343C8.00155 20.3806 8.22468 20.4534 8.7798 20.5364C9.76718 20.6326 10.6602 20.9114 11.3072 21.5179C11.9542 22.1247 12.3541 22.9621 12.3541 23.887C12.3541 25.7375 10.7534 27.2385 8.7798 27.2385C6.80718 27.2385 5.20605 25.7375 5.20605 23.887H7.2998C7.2998 24.6536 7.96243 25.2756 8.7798 25.2756C9.5973 25.2756 10.2608 24.6536 10.2608 23.887C10.2608 23.5041 10.0953 23.158 9.82818 22.907H9.82718C9.55918 22.6555 9.1743 22.5691 8.7798 22.4997V22.4992C7.8228 22.3616 6.9003 22.1237 6.25343 21.5169ZM19.5021 15.7971L16.9737 27.2385H14.8804L12.3541 15.7971H14.4478L15.9293 22.4982L17.4083 15.7971H19.5021ZM23.0767 20.5364H26.6499V23.887H26.6509C26.6509 25.738 25.0503 27.239 23.0767 27.239C21.1026 27.239 19.5029 25.738 19.5029 23.887V19.1482H19.5021C19.5021 17.2976 21.1026 15.7976 23.0767 15.7976C25.0494 15.7976 26.6499 17.2976 26.6499 19.1482H24.5567C24.5567 18.3826 23.8932 17.7605 23.0767 17.7605C22.2588 17.7605 21.5963 18.3826 21.5963 19.1482V23.887C21.5963 24.6536 22.2588 25.2751 23.0767 25.2751C23.8932 25.2751 24.5557 24.6536 24.5567 23.888V22.5002H23.0767V20.5364Z" fill="white"/>
</g>
<defs>
<clipPath id="clip0_1062_297">
<rect width="32" height="32" fill="white"/>
</clipPath>
</defs>
</svg>
