<svg width="32" height="32" viewBox="0 0 32 32" fill="none" xmlns="http://www.w3.org/2000/svg">
<g clip-path="url(#clip0_1062_210)">
<path d="M24.5 0H7.5C3.35786 0 0 3.35786 0 7.5V24.5C0 28.6421 3.35786 32 7.5 32H24.5C28.6421 32 32 28.6421 32 24.5V7.5C32 3.35786 28.6421 0 24.5 0Z" opacity="0.3" fill="#042f27"/>
<path d="M22.75 6.25H27.25L16 25.6562L4.75 6.25H13.3562L16 10.75L18.5875 6.25H22.75Z" fill="#41B883"/>
<path d="M4.75 6.25L16 25.6562L27.25 6.25H22.75L16 17.8937L9.19375 6.25H4.75Z" fill="#41B883"/>
<path d="M9.19373 6.25L16 17.95L22.75 6.25H18.5875L16 10.75L13.3562 6.25H9.19373Z" fill="#35495E"/>
</g>
<defs>
<clipPath id="clip0_1062_210">
<rect width="32" height="32" fill="white"/>
</clipPath>
</defs>
</svg>
