<svg width="32" height="32" viewBox="0 0 32 32" fill="none" xmlns="http://www.w3.org/2000/svg">
<path opacity="0.25" d="M26.6666 18.6667V14.2092C26.6666 13.1191 26.6666 12.5741 26.4637 12.0841L25.3333 12C21.5621 12 19.6765 12 18.5049 10.8284C17.3333 9.65684 17.3333 7.77123 17.3333 3.99999L17.1162 2.81867C16.6854 2.66666 16.2151 2.66666 15.2743 2.66666C10.9477 2.66666 8.78433 2.66666 7.31903 3.84808C7.023 4.08676 6.75336 4.3564 6.51468 4.65243C5.33325 6.11774 5.33325 8.28108 5.33325 12.6078V18.6667C5.33325 23.6949 5.33325 26.2092 6.89535 27.7712C8.45745 29.3333 10.9716 29.3333 15.9999 29.3333C21.0282 29.3333 23.5425 29.3333 25.1045 27.7712C26.6666 26.2092 26.6666 23.6949 26.6666 18.6667Z" fill="currentColor"/>
<path d="M17.3333 3.33332V3.99999C17.3333 7.77123 17.3333 9.65684 18.5049 10.8284C19.6765 12 21.5621 12 25.3333 12H25.9999M26.6666 14.2092V18.6667C26.6666 23.6949 26.6666 26.2092 25.1045 27.7712C23.5425 29.3333 21.0282 29.3333 15.9999 29.3333C10.9716 29.3333 8.45745 29.3333 6.89535 27.7712C5.33325 26.2092 5.33325 23.6949 5.33325 18.6667V12.6078C5.33325 8.28108 5.33325 6.11774 6.51468 4.65243C6.75336 4.3564 7.023 4.08676 7.31903 3.84808C8.78433 2.66666 10.9477 2.66666 15.2743 2.66666C16.2151 2.66666 16.6854 2.66666 17.1162 2.81867C17.2058 2.85028 17.2935 2.88666 17.3793 2.92766C17.7914 3.12472 18.1239 3.45732 18.7891 4.1225L25.1045 10.4379C25.8753 11.2086 26.2606 11.594 26.4637 12.0841C26.6666 12.5741 26.6666 13.1191 26.6666 14.2092Z" stroke="currentColor" stroke-width="2.5" stroke-linecap="round" stroke-linejoin="round"/>
</svg>
