<svg width="32" height="32" viewBox="0 0 32 32" fill="none" xmlns="http://www.w3.org/2000/svg">
<path opacity="0.2" d="M27.48 4.59L12.36 17.81C12.36 17.81 12.35 17.72 12.35 17.68C12.32 17.28 12.13 16.92 11.81 16.67C8.49996 14.19 6.12996 11.46 4.83996 9.93C4.43996 9.46 4.30996 9.11 4.22996 8.5C3.95996 6.4 3.82996 5.35 4.43996 4.67C5.05996 4 6.13997 4 8.31997 4H23.69C25.76 4 26.85 4 27.48 4.59Z" fill="currentColor"/>
<path d="M27.48 4.59L12.36 17.81C12.36 17.81 12.35 17.72 12.35 17.68C12.32 17.28 12.13 16.92 11.81 16.67C8.49996 14.19 6.12996 11.46 4.83996 9.93C4.43996 9.46 4.30996 9.11 4.22996 8.5C3.95996 6.4 3.82996 5.35 4.43996 4.67C5.05996 4 6.13997 4 8.31997 4H23.69C25.76 4 26.85 4 27.48 4.59Z" stroke="currentColor" stroke-width="2" stroke-linecap="round" stroke-linejoin="round"/>
<path d="M27.48 4.59003C27.48 4.59003 27.54 4.64003 27.57 4.67003C28.18 5.35003 28.05 6.40003 27.78 8.49003C27.7 9.11003 27.57 9.45003 27.17 9.93003C25.87 11.46 23.5 14.2 20.18 16.68C19.87 16.92 19.68 17.29 19.64 17.68C19.32 21.32 19.01 23.31 18.82 24.32C18.52 25.95 16.21 26.93 14.97 27.8C14.24 28.32 13.34 27.71 13.25 26.9C12.9 23.87 12.6 20.85 12.36 17.81" stroke="currentColor" stroke-width="2" stroke-linecap="round" stroke-linejoin="round"/>
</svg>
