<svg width="32" height="32" viewBox="0 0 32 32" fill="none" xmlns="http://www.w3.org/2000/svg">
<path opacity="0.25" d="M4.21077 20.6859L4.60865 19.6956C5.58713 17.2599 6.07639 16.0421 7.09661 15.3544C8.11684 14.6667 9.43417 14.6667 12.0688 14.6667H22.8159C26.4006 14.6667 28.1929 14.6667 28.9897 15.8383C29.7864 17.01 29.1207 18.6669 27.7894 21.9808L27.3915 22.9711C26.413 25.4068 25.9238 26.6245 24.9035 27.3123C23.8833 28 22.5659 28 19.9313 28H9.18424C5.59956 28 3.80721 28 3.01051 26.8284C2.2138 25.6567 2.87945 23.9997 4.21077 20.6859Z" fill="currentColor"/>
<path d="M2.66675 25.3333V10.0654C2.66675 8.14021 2.66675 7.17763 2.99117 6.42196C3.39568 5.4798 4.14655 4.72893 5.08871 4.32443C5.84437 4 6.79748 4 8.73211 4H9.39089C10.1977 4 10.9611 4.36525 11.4673 4.99345L13.8901 8M13.8901 8H21.3334C23.2002 8 24.1337 8 24.8467 8.36331C25.4739 8.68289 25.9838 9.19283 26.3034 9.82003C26.6667 10.5331 26.6667 11.4665 26.6667 13.3333V14.6667M13.8901 8H9.33341" stroke="currentColor" stroke-width="2.5" stroke-linecap="round" stroke-linejoin="round"/>
<path d="M4.21077 20.6859L4.60865 19.6956C5.58713 17.2599 6.07639 16.0421 7.09661 15.3544C8.11684 14.6667 9.43417 14.6667 12.0688 14.6667H22.8159C26.4006 14.6667 28.1929 14.6667 28.9897 15.8383C29.7864 17.01 29.1207 18.6669 27.7894 21.9808L27.3915 22.9711C26.413 25.4068 25.9238 26.6245 24.9035 27.3123C23.8833 28 22.5659 28 19.9313 28H9.18424C5.59956 28 3.80721 28 3.01051 26.8284C2.2138 25.6567 2.87945 23.9997 4.21077 20.6859Z" stroke="currentColor" stroke-width="2.5" stroke-linejoin="round"/>
</svg>
