<svg width="32" height="32" viewBox="0 0 32 32" fill="none" xmlns="http://www.w3.org/2000/svg">
<path opacity="0.25" d="M16.0001 28H17.6667C22.3483 28 24.689 28 26.3706 26.8764C27.0985 26.3901 27.7236 25.7651 28.2098 25.0372C29.3334 23.3556 29.3334 21.0149 29.3334 16.3333C29.3334 13.5244 29.3334 12.1199 28.6593 11.1111C28.3674 10.6743 27.9925 10.2993 27.5557 10.0075C26.5467 9.33333 25.1423 9.33333 22.3334 9.33333H16.0001L15.1555 7.64417C14.4558 6.24477 13.8163 4.83616 12.2658 4.25468C11.5866 4 10.8108 4 9.25911 4C6.83715 4 5.62616 4 4.71749 4.50709C4.06977 4.86856 3.53531 5.40303 3.17384 6.05075C2.66675 6.95941 2.66675 8.1704 2.66675 10.5924V14.6667C2.66675 20.952 2.66675 24.0948 4.61937 26.0473C6.57199 28 9.71468 28 16.0001 28Z" fill="currentColor"/>
<path d="M10.6667 9.33333H22.3334C25.1423 9.33333 26.5467 9.33333 27.5557 10.0075C27.9925 10.2993 28.3674 10.6743 28.6593 11.1111C29.3334 12.1199 29.3334 13.5244 29.3334 16.3333C29.3334 21.0149 29.3334 23.3556 28.2098 25.0372C27.7236 25.7651 27.0985 26.3901 26.3706 26.8764C24.689 28 22.3483 28 17.6667 28H16.0001C9.71468 28 6.57199 28 4.61937 26.0473C2.66675 24.0948 2.66675 20.952 2.66675 14.6667V10.5924C2.66675 8.1704 2.66675 6.95941 3.17384 6.05075C3.53531 5.40303 4.06977 4.86856 4.71749 4.50709C5.62616 4 6.83715 4 9.25911 4C10.8108 4 11.5866 4 12.2658 4.25468C13.8163 4.83616 14.4558 6.24477 15.1555 7.64417L16.0001 9.33333" stroke="currentColor" stroke-width="2.5" stroke-linecap="round"/>
</svg>
