<svg width="32" height="32" viewBox="0 0 32 32" fill="none" xmlns="http://www.w3.org/2000/svg">
<path opacity="0.25" d="M3.33325 16C3.33325 10.0289 3.33325 7.04331 5.18824 5.18831C7.04324 3.33333 10.0288 3.33333 15.9999 3.33333C21.971 3.33333 24.9566 3.33333 26.8117 5.18831C28.6666 7.04331 28.6666 10.0289 28.6666 16C28.6666 21.9711 28.6666 24.9567 26.8117 26.8117C24.9566 28.6667 21.971 28.6667 15.9999 28.6667C10.0288 28.6667 7.04324 28.6667 5.18824 26.8117C3.33325 24.9567 3.33325 21.9711 3.33325 16Z" fill="currentColor"/>
<path d="M3.33325 16C3.33325 10.0289 3.33325 7.04331 5.18824 5.18831C7.04324 3.33333 10.0288 3.33333 15.9999 3.33333C21.971 3.33333 24.9566 3.33333 26.8117 5.18831C28.6666 7.04331 28.6666 10.0289 28.6666 16C28.6666 21.9711 28.6666 24.9567 26.8117 26.8117C24.9566 28.6667 21.971 28.6667 15.9999 28.6667C10.0288 28.6667 7.04324 28.6667 5.18824 26.8117C3.33325 24.9567 3.33325 21.9711 3.33325 16Z" stroke="currentColor" stroke-width="2.5" stroke-linecap="round" stroke-linejoin="round"/>
<path d="M16 21.3333V15.3333" stroke="currentColor" stroke-width="2.5" stroke-linecap="round" stroke-linejoin="round"/>
<path d="M16 10.6823V10.669" stroke="currentColor" stroke-width="2.5" stroke-linecap="round" stroke-linejoin="round"/>
</svg>
