<svg width="32" height="32" viewBox="0 0 32 32" fill="none" xmlns="http://www.w3.org/2000/svg">
<path opacity="0.25" d="M3.33337 16C3.33337 10.0289 3.33337 7.0433 5.18836 5.1883C7.04336 3.33331 10.0289 3.33331 16 3.33331C21.9711 3.33331 24.9567 3.33331 26.8118 5.1883C28.6667 7.0433 28.6667 10.0289 28.6667 16C28.6667 21.971 28.6667 24.9566 26.8118 26.8117C24.9567 28.6666 21.9711 28.6666 16 28.6666C10.0289 28.6666 7.04336 28.6666 5.18836 26.8117C3.33337 24.9566 3.33337 21.971 3.33337 16Z" fill="currentColor"/>
<path d="M9.33337 11.1724H15.3334M15.3334 11.1724H19.3334M15.3334 11.1724V9.33331M22.6667 11.1724H19.3334M19.3334 11.1724C18.63 13.6874 17.1572 16.0649 15.4762 18.1544M15.4762 18.1544C14.0842 19.8845 12.5494 21.417 11.1905 22.6666M15.4762 18.1544C14.6191 17.1494 13.4191 15.5234 13.0762 14.7878M15.4762 18.1544L18.0476 20.8276" stroke="currentColor" stroke-width="2.5" stroke-linecap="round" stroke-linejoin="round"/>
<path d="M3.33337 16C3.33337 10.0289 3.33337 7.0433 5.18836 5.1883C7.04336 3.33331 10.0289 3.33331 16 3.33331C21.9711 3.33331 24.9567 3.33331 26.8118 5.1883C28.6667 7.0433 28.6667 10.0289 28.6667 16C28.6667 21.971 28.6667 24.9566 26.8118 26.8117C24.9567 28.6666 21.9711 28.6666 16 28.6666C10.0289 28.6666 7.04336 28.6666 5.18836 26.8117C3.33337 24.9566 3.33337 21.971 3.33337 16Z" stroke="currentColor" stroke-width="2.5"/>
</svg>
