<svg width="32" height="32" viewBox="0 0 32 32" fill="none" xmlns="http://www.w3.org/2000/svg">
<path opacity="0.25" d="M7.21891 18.1368L8.50748 19.1518C10.5952 20.7965 11.6391 21.6188 12.4862 21.2437C13.3333 20.8686 13.3333 19.5841 13.3333 17.015V14.9849C13.3333 12.4158 13.3333 11.1313 12.4862 10.7562C11.6391 10.3812 10.5952 11.2035 8.50749 12.8481L7.21891 13.8632C5.96188 14.8534 5.33337 15.3486 5.33337 16C5.33337 16.6513 5.96188 17.1465 7.21891 18.1368Z" fill="currentColor"/>
<path d="M13.3334 16H26.6667" stroke="currentColor" stroke-width="2.5" stroke-linecap="round" stroke-linejoin="round"/>
<path d="M7.21891 18.1368L8.50748 19.1518C10.5952 20.7965 11.6391 21.6188 12.4862 21.2437C13.3333 20.8686 13.3333 19.5841 13.3333 17.015V14.9849C13.3333 12.4158 13.3333 11.1313 12.4862 10.7562C11.6391 10.3812 10.5952 11.2035 8.50749 12.8481L7.21891 13.8632C5.96188 14.8534 5.33337 15.3486 5.33337 16C5.33337 16.6513 5.96188 17.1465 7.21891 18.1368Z" stroke="currentColor" stroke-width="2.5" stroke-linecap="round" stroke-linejoin="round"/>
</svg>
