<svg width="32" height="32" viewBox="0 0 32 32" fill="none" xmlns="http://www.w3.org/2000/svg">
<path opacity="0.25" d="M22.6666 16C22.6666 19.6818 19.6818 22.6666 15.9999 22.6666C12.318 22.6666 9.33325 19.6818 9.33325 16C9.33325 12.3181 12.318 9.33331 15.9999 9.33331C19.6818 9.33331 22.6666 12.3181 22.6666 16Z" fill="currentColor"/>
<path d="M22.6666 16C22.6666 19.6818 19.6818 22.6666 15.9999 22.6666C12.318 22.6666 9.33325 19.6818 9.33325 16C9.33325 12.3181 12.318 9.33331 15.9999 9.33331C19.6818 9.33331 22.6666 12.3181 22.6666 16Z" stroke="currentColor" stroke-width="2.5"/>
<path d="M16.0001 2.66669V4.66669M16.0001 27.3334V29.3334M25.4278 25.4284L24.0135 24.0142M7.98576 7.9857L6.57155 6.57149M29.3334 16H27.3334M4.66675 16H2.66675M25.4285 6.57163L24.0142 7.98585M7.98641 24.0143L6.5722 25.4286" stroke="currentColor" stroke-width="2.5" stroke-linecap="round"/>
</svg>
