<svg width="32" height="32" viewBox="0 0 32 32" fill="none" xmlns="http://www.w3.org/2000/svg">
<path opacity="0.25" d="M20.6383 10.4083L20.2832 11.5551C19.9923 12.4948 19.8468 12.9646 19.9587 13.3357C20.0492 13.6358 20.2479 13.8946 20.5187 14.0649C20.8534 14.2753 21.3596 14.2753 22.3722 14.2753H22.9108C26.3376 14.2753 28.051 14.2753 28.8603 15.2897C28.9527 15.4056 29.035 15.5289 29.1062 15.6582C29.7287 16.7894 29.021 18.3134 27.6054 21.3614C26.3063 24.1585 25.6567 25.557 24.4507 26.3802C24.334 26.4598 24.214 26.535 24.0911 26.6054C22.8214 27.3333 21.2483 27.3333 18.1019 27.3333H17.4195C13.6076 27.3333 11.7017 27.3333 10.5176 26.186C9.33337 25.0385 9.33337 23.1918 9.33337 19.4985V18.2004C9.33337 16.2594 9.33337 15.289 9.67783 14.4008C10.0223 13.5125 10.6818 12.7821 12.001 11.3215L17.4562 5.28071C17.593 5.12921 17.6614 5.05345 17.7218 5.00096C18.2847 4.511 19.1536 4.56615 19.6459 5.12309C19.6987 5.18276 19.7563 5.26651 19.8715 5.43401C20.0518 5.69603 20.1419 5.82704 20.2206 5.95683C20.9238 7.1188 21.1366 8.49911 20.8144 9.80949C20.7784 9.95585 20.7318 10.1068 20.6383 10.4083Z" fill="currentColor"/>
<path d="M2.66663 16.6667C2.66663 15.1939 3.86053 14 5.33329 14C7.54243 14 9.33329 15.7908 9.33329 18V23.3333C9.33329 25.5425 7.54243 27.3333 5.33329 27.3333C3.86053 27.3333 2.66663 26.1395 2.66663 24.6667V16.6667Z" stroke="currentColor" stroke-width="2.5" stroke-linecap="round" stroke-linejoin="round"/>
<path d="M20.6383 10.4083L20.2832 11.5551C19.9923 12.4948 19.8468 12.9646 19.9587 13.3357C20.0492 13.6358 20.2479 13.8946 20.5187 14.0649C20.8534 14.2753 21.3596 14.2753 22.3722 14.2753H22.9108C26.3376 14.2753 28.051 14.2753 28.8603 15.2897C28.9527 15.4056 29.035 15.5289 29.1062 15.6582C29.7287 16.7894 29.021 18.3134 27.6054 21.3614C26.3063 24.1585 25.6567 25.557 24.4507 26.3802C24.334 26.4598 24.214 26.535 24.0911 26.6054C22.8214 27.3333 21.2483 27.3333 18.1019 27.3333H17.4195C13.6076 27.3333 11.7017 27.3333 10.5176 26.186C9.33337 25.0385 9.33337 23.1918 9.33337 19.4985V18.2004C9.33337 16.2594 9.33337 15.289 9.67783 14.4008C10.0223 13.5125 10.6818 12.7821 12.001 11.3215L17.4562 5.28071C17.593 5.12921 17.6614 5.05345 17.7218 5.00096C18.2847 4.511 19.1536 4.56615 19.6459 5.12309C19.6987 5.18276 19.7563 5.26651 19.8715 5.43401C20.0518 5.69603 20.1419 5.82704 20.2206 5.95683C20.9238 7.1188 21.1366 8.49911 20.8144 9.80949C20.7784 9.95585 20.7318 10.1068 20.6383 10.4083Z" stroke="currentColor" stroke-width="2.5" stroke-linecap="round" stroke-linejoin="round"/>
</svg>
