<svg width="32" height="32" viewBox="0 0 32 32" fill="none" xmlns="http://www.w3.org/2000/svg">
<path opacity="0.25" d="M9.06501 2.66667H22.9352C24.8788 2.66667 26.5841 3.97961 26.662 5.87141C26.7639 8.34413 25.1155 9.80744 23.3277 11.3161C20.8953 13.3688 19.6792 14.3952 19.5516 15.6944C19.5316 15.8977 19.5316 16.1023 19.5516 16.3056C19.6792 17.6048 20.8953 18.6312 23.3277 20.6839C23.5065 20.8348 23.6864 20.9847 23.8664 21.1347C24.2407 21.4468 24.6152 21.7589 24.9803 22.08C26.1659 23.1227 26.724 24.6224 26.662 26.1285C26.5841 28.0204 24.8788 29.3333 22.9352 29.3333H20V28.8508C20 28.2616 20 27.9669 19.8832 27.7095C19.8647 27.6685 19.844 27.6285 19.8213 27.5897C19.6787 27.3453 19.4372 27.1728 18.9543 26.8279C17.6128 25.8695 16.942 25.3903 16.1797 25.3393C16.06 25.3313 15.94 25.3313 15.8203 25.3393C15.058 25.3903 14.3873 25.8695 13.0458 26.8277C12.5628 27.1728 12.3213 27.3453 12.1787 27.5897C12.156 27.6285 12.1353 27.6685 12.1168 27.7095C12 27.9669 12 28.2616 12 28.8508V29.3333H9.06501C7.12133 29.3333 5.41603 28.0204 5.33813 26.1285C5.23508 23.626 6.86576 22.2085 8.67247 20.6839C11.1048 18.6312 12.321 17.6048 12.4486 16.3056C12.4685 16.1023 12.4685 15.8977 12.4486 15.6944C12.321 14.3952 11.1048 13.3688 8.67247 11.3161C6.91419 9.8323 5.24012 8.25173 5.33813 5.87141C5.41603 3.97961 7.12133 2.66667 9.06501 2.66667Z" fill="currentColor"/>
<path d="M22.9352 2.66667H9.06501C7.12133 2.66667 5.41603 3.97961 5.33813 5.87141C5.24012 8.25173 6.91419 9.8323 8.67247 11.3161C11.1048 13.3688 12.321 14.3952 12.4486 15.6944C12.4685 15.8977 12.4685 16.1023 12.4486 16.3056C12.321 17.6048 11.1048 18.6312 8.67247 20.6839C6.86576 22.2085 5.23507 23.626 5.33813 26.1285C5.41603 28.0204 7.12133 29.3333 9.06501 29.3333H22.9352C24.8788 29.3333 26.5841 28.0204 26.662 26.1285C26.724 24.6224 26.1659 23.1227 24.9803 22.08C24.4397 21.6045 23.8785 21.1487 23.3277 20.6839C20.8953 18.6312 19.6792 17.6048 19.5516 16.3056C19.5316 16.1023 19.5316 15.8977 19.5516 15.6944C19.6792 14.3952 20.8953 13.3688 23.3277 11.3161C25.1155 9.80744 26.7639 8.34413 26.662 5.87141C26.5841 3.97961 24.8788 2.66667 22.9352 2.66667Z" stroke="currentColor" stroke-width="2.5"/>
<path d="M12 28.8508C12 28.2616 12 27.9669 12.1168 27.7095C12.1353 27.6685 12.156 27.6285 12.1787 27.5897C12.3213 27.3453 12.5628 27.1728 13.0458 26.8277C14.3873 25.8695 15.058 25.3903 15.8203 25.3393C15.94 25.3313 16.06 25.3313 16.1797 25.3393C16.942 25.3903 17.6127 25.8695 18.9543 26.8277C19.4372 27.1728 19.6787 27.3453 19.8213 27.5897C19.844 27.6285 19.8647 27.6685 19.8832 27.7095C20 27.9669 20 28.2616 20 28.8508V29.3333H12V28.8508Z" stroke="currentColor" stroke-width="2.5" stroke-linecap="round"/>
</svg>
