<svg width="32" height="32" viewBox="0 0 32 32" fill="none" xmlns="http://www.w3.org/2000/svg">
<path opacity="0.25" d="M16.063 8.1691L11.1832 3.27558C10.3736 2.46364 9.06087 2.46364 8.25121 3.27558C7.44156 4.08752 7.44156 5.40394 8.25121 6.21587L14.1153 12.0964C13.3056 11.2845 11.9929 11.2845 11.1832 12.0964C10.3736 12.9084 10.3736 14.2248 11.1832 15.0368L12.1606 16.0168C11.3509 15.2049 10.0382 15.2049 9.22855 16.0168C8.41889 16.8288 8.41889 18.1452 9.22855 18.9572L10.2059 19.9372C9.39624 19.1253 8.08352 19.1253 7.27387 19.9372C6.46421 20.7492 6.46421 22.0656 7.27387 22.8774L10.6946 26.3078C19.4076 35.0454 30.7597 22.9073 22.4226 14.5466L21.4454 13.5666L16.063 8.1691Z" fill="currentColor"/>
<path d="M14.14 12.037L8.27007 6.1547C7.48003 5.36299 7.48715 4.07224 8.28599 3.27172C9.08483 2.4712 10.3729 2.46406 11.1629 3.25576L21.5437 13.5561C25.0881 17.108 27.1312 21.7638 23.1748 26.575L22.7528 26.998C19.6456 30.1117 14.6077 30.1117 11.5004 26.998L7.24876 22.7981C6.45872 22.0064 6.47485 20.7066 7.28481 19.895C8.05261 19.1256 9.25815 19.071 10.0545 19.7418M14.14 12.037L17.4854 15.3894M14.14 12.037C13.35 11.2453 12.0189 11.2637 11.2054 12.0789C10.3919 12.8941 10.3729 14.1968 11.1629 14.9885L12.1334 15.961M10.0545 19.7418L9.22089 18.931C8.43085 18.1393 8.44985 16.8366 9.26336 16.0214C10.0769 15.2062 11.3433 15.1693 12.1334 15.961M10.0545 19.7418L11.5617 21.2076M10.0545 19.7418C10.0983 19.7786 10.1408 19.8177 10.1819 19.8589M12.1334 15.961L14.5117 18.3444M16.1814 8.23544C16.4046 6.18634 18.8314 4.06218 21.8617 5.51786C22.1494 5.6561 22.3774 5.91762 22.3801 6.23738C22.3842 6.75248 22.1581 7.38844 21.4333 7.81012C20.3965 8.41334 18.6981 10.7181 20.9653 12.9901" stroke="currentColor" stroke-width="2.5" stroke-linecap="round" stroke-linejoin="round"/>
</svg>
