<svg width="32" height="32" viewBox="0 0 32 32" fill="none" xmlns="http://www.w3.org/2000/svg">
<path opacity="0.25" d="M2.66663 24C2.66663 21.9461 2.66663 20.9191 3.12893 20.1647C3.38761 19.7425 3.74253 19.3876 4.16467 19.1289C4.91908 18.6667 5.94604 18.6667 7.99996 18.6667C10.0539 18.6667 11.0808 18.6667 11.8353 19.1289C12.2574 19.3876 12.6123 19.7425 12.871 20.1647C13.3333 20.9191 13.3333 21.9461 13.3333 24C13.3333 26.0539 13.3333 27.0809 12.871 27.8353C12.6123 28.2575 12.2574 28.6124 11.8353 28.8711C11.0808 29.3333 10.0539 29.3333 7.99996 29.3333C5.94604 29.3333 4.91908 29.3333 4.16467 28.8711C3.74253 28.6124 3.38761 28.2575 3.12893 27.8353C2.66663 27.0809 2.66663 26.0539 2.66663 24Z" fill="currentColor"/>
<path d="M2.66663 24C2.66663 21.9461 2.66663 20.9191 3.12893 20.1647C3.38761 19.7425 3.74253 19.3876 4.16467 19.1289C4.91908 18.6667 5.94604 18.6667 7.99996 18.6667C10.0539 18.6667 11.0808 18.6667 11.8353 19.1289C12.2574 19.3876 12.6123 19.7425 12.871 20.1647C13.3333 20.9191 13.3333 21.9461 13.3333 24C13.3333 26.0539 13.3333 27.0809 12.871 27.8353C12.6123 28.2575 12.2574 28.6124 11.8353 28.8711C11.0808 29.3333 10.0539 29.3333 7.99996 29.3333C5.94604 29.3333 4.91908 29.3333 4.16467 28.8711C3.74253 28.6124 3.38761 28.2575 3.12893 27.8353C2.66663 27.0809 2.66663 26.0539 2.66663 24Z" stroke="currentColor" stroke-width="2.5"/>
<path d="M18.6666 24C18.6666 21.9461 18.6666 20.9191 19.1289 20.1647C19.3876 19.7425 19.7425 19.3876 20.1646 19.1289C20.919 18.6667 21.9461 18.6667 24 18.6667C26.0538 18.6667 27.0809 18.6667 27.8353 19.1289C28.2574 19.3876 28.6124 19.7425 28.871 20.1647C29.3333 20.9191 29.3333 21.9461 29.3333 24C29.3333 26.0539 29.3333 27.0809 28.871 27.8353C28.6124 28.2575 28.2574 28.6124 27.8353 28.8711C27.0809 29.3333 26.0538 29.3333 24 29.3333C21.9461 29.3333 20.919 29.3333 20.1646 28.8711C19.7425 28.6124 19.3876 28.2575 19.1289 27.8353C18.6666 27.0809 18.6666 26.0539 18.6666 24Z" stroke="currentColor" stroke-width="2.5"/>
<path opacity="0.25" d="M18.6666 7.99999C18.6666 5.94607 18.6666 4.91911 19.1289 4.1647C19.3876 3.74256 19.7425 3.38764 20.1646 3.12896C20.919 2.66666 21.9461 2.66666 24 2.66666C26.0538 2.66666 27.0809 2.66666 27.8353 3.12896C28.2574 3.38764 28.6124 3.74256 28.871 4.1647C29.3333 4.91911 29.3333 5.94607 29.3333 7.99999C29.3333 10.0539 29.3333 11.0809 28.871 11.8353C28.6124 12.2574 28.2574 12.6123 27.8353 12.871C27.0809 13.3333 26.0538 13.3333 24 13.3333C21.9461 13.3333 20.919 13.3333 20.1646 12.871C19.7425 12.6123 19.3876 12.2574 19.1289 11.8353C18.6666 11.0809 18.6666 10.0539 18.6666 7.99999Z" fill="currentColor"/>
<path d="M2.66663 7.99999C2.66663 5.94607 2.66663 4.91911 3.12893 4.1647C3.38761 3.74256 3.74253 3.38764 4.16467 3.12896C4.91908 2.66666 5.94604 2.66666 7.99996 2.66666C10.0539 2.66666 11.0808 2.66666 11.8353 3.12896C12.2574 3.38764 12.6123 3.74256 12.871 4.1647C13.3333 4.91911 13.3333 5.94607 13.3333 7.99999C13.3333 10.0539 13.3333 11.0809 12.871 11.8353C12.6123 12.2574 12.2574 12.6123 11.8353 12.871C11.0808 13.3333 10.0539 13.3333 7.99996 13.3333C5.94604 13.3333 4.91908 13.3333 4.16467 12.871C3.74253 12.6123 3.38761 12.2574 3.12893 11.8353C2.66663 11.0809 2.66663 10.0539 2.66663 7.99999Z" stroke="currentColor" stroke-width="2.5"/>
<path d="M18.6666 7.99999C18.6666 5.94607 18.6666 4.91911 19.1289 4.1647C19.3876 3.74256 19.7425 3.38764 20.1646 3.12896C20.919 2.66666 21.9461 2.66666 24 2.66666C26.0538 2.66666 27.0809 2.66666 27.8353 3.12896C28.2574 3.38764 28.6124 3.74256 28.871 4.1647C29.3333 4.91911 29.3333 5.94607 29.3333 7.99999C29.3333 10.0539 29.3333 11.0809 28.871 11.8353C28.6124 12.2574 28.2574 12.6123 27.8353 12.871C27.0809 13.3333 26.0538 13.3333 24 13.3333C21.9461 13.3333 20.919 13.3333 20.1646 12.871C19.7425 12.6123 19.3876 12.2574 19.1289 11.8353C18.6666 11.0809 18.6666 10.0539 18.6666 7.99999Z" stroke="currentColor" stroke-width="2.5"/>
</svg>
