<svg width="32" height="32" viewBox="0 0 32 32" fill="none" xmlns="http://www.w3.org/2000/svg">
<path opacity="0.25" d="M10.6666 4H21.3333C25.1045 4 26.9901 4 28.1617 5.17157C29.3333 6.34315 29.3333 8.22876 29.3333 12V14.6667C29.3333 15.606 29.3333 16.4284 29.3152 17.1519C29.2756 16.2244 29.1494 15.6544 28.7476 15.2524C28.1617 14.6667 27.2189 14.6667 25.3333 14.6667C23.4477 14.6667 22.5049 14.6667 21.919 15.2524C21.3333 15.8383 21.3333 16.7811 21.3333 18.6667V22.6667H10.6666C6.89539 22.6667 5.00977 22.6667 3.8382 21.4951C2.66663 20.3235 2.66663 18.4379 2.66663 14.6667V12C2.66663 8.22876 2.66663 6.34315 3.8382 5.17157C5.00977 4 6.89539 4 10.6666 4Z" fill="currentColor"/>
<path d="M16 22.6667H10.6666C6.89539 22.6667 5.00977 22.6667 3.8382 21.4951C2.66663 20.3235 2.66663 18.4379 2.66663 14.6667V12C2.66663 8.22876 2.66663 6.34315 3.8382 5.17157C5.00977 4 6.89539 4 10.6666 4H21.3333C25.1045 4 26.9901 4 28.1617 5.17157C29.2621 6.27197 29.329 8.00231 29.333 11.3333" stroke="currentColor" stroke-width="2.5" stroke-linecap="round" stroke-linejoin="round"/>
<path d="M21.3334 18.6666V24C21.3334 25.8856 21.3334 26.8284 21.9191 27.4142C22.505 28 23.4478 28 25.3334 28C27.219 28 28.1618 28 28.7476 27.4142C29.3334 26.8284 29.3334 25.8856 29.3334 24V18.6666C29.3334 16.781 29.3334 15.8382 28.7476 15.2524C28.1618 14.6666 27.219 14.6666 25.3334 14.6666C23.4478 14.6666 22.505 14.6666 21.9191 15.2524C21.3334 15.8382 21.3334 16.781 21.3334 18.6666Z" stroke="currentColor" stroke-width="2.5" stroke-linecap="round" stroke-linejoin="round"/>
<path d="M13.3333 28H10.6666M13.3333 28C14.4378 28 15.3333 27.1045 15.3333 26V22.6666H16M13.3333 28H16.6666V22.6666H16M16 22.6666V28" stroke="currentColor" stroke-width="2.5" stroke-linecap="round" stroke-linejoin="round"/>
</svg>
