<svg width="32" height="32" viewBox="0 0 32 32" fill="none" xmlns="http://www.w3.org/2000/svg">
<path d="M20.5618 17.573C21.429 17.573 22.1348 16.8674 22.1348 15.9998C22.1348 15.1322 21.4293 14.4269 20.5618 14.4269C19.6943 14.4269 18.9888 15.1325 18.9888 15.9998C18.9888 16.8671 19.6943 17.573 20.5618 17.573Z" fill="currentColor"/>
<path d="M9.86523 15.9998C9.86523 16.8671 10.5708 17.573 11.4383 17.573C12.3058 17.573 13.0113 16.8674 13.0113 15.9998C13.0113 15.1322 12.3058 14.4269 11.4383 14.4269C10.5708 14.4269 9.86523 15.1325 9.86523 15.9998Z" fill="currentColor"/>
<path d="M25.8994 6.1006C23.2555 3.4567 19.7394 2 16 2C12.2606 2 8.7445 3.456 6.1006 6.1006C3.456 8.7445 2 12.2606 2 16C2 19.7394 3.456 23.2552 6.1006 25.8994C8.7445 28.5433 12.2606 30 16 30C19.7394 30 23.2555 28.544 25.8994 25.8994C28.544 23.2555 30 19.7394 30 16C30 12.2606 28.544 8.74485 25.8994 6.1006ZM25.1539 23.3916C23.5012 25.4405 21.1915 26.8843 18.6383 27.4688V16.0406C18.6383 14.18 20.1339 12.6663 21.9717 12.6663H21.9937C22.8866 12.6719 23.7231 13.0264 24.3492 13.6634C24.9754 14.3 25.3149 15.1435 25.3055 16.0375C25.2855 17.8547 23.791 19.3334 21.9731 19.3341C21.6108 19.3341 21.2549 19.2771 20.9154 19.1637C20.7999 19.1252 20.6805 19.1052 20.5609 19.1052C19.9459 19.1052 19.4454 19.6067 19.4454 20.2234C19.4454 20.7057 19.7544 21.1324 20.2136 21.285C20.7786 21.4729 21.3704 21.5685 21.972 21.5685C23.4438 21.5685 24.8316 20.9998 25.8798 19.9669C26.9263 18.9351 27.5161 17.5585 27.5392 16.0903C27.563 14.5919 27.004 13.1797 25.9652 12.1125C24.9274 11.0457 23.532 10.4493 22.0358 10.4325C22.0148 10.4325 21.993 10.4319 21.9717 10.4319C20.4811 10.4319 19.0807 11.0135 18.0282 12.0691C16.9804 13.1202 16.4032 14.5164 16.4032 16.0003V27.7593C16.2681 27.7638 16.1327 27.7659 15.9993 27.7659C9.5117 27.7659 4.2337 22.4876 4.2337 16.0003C4.2337 13.3215 5.16155 10.6965 6.8454 8.6087C8.4981 6.5598 10.8078 5.11605 13.361 4.53155V15.9598C13.361 17.8204 11.8654 19.3341 10.0276 19.3341H10.0052C9.11235 19.3285 8.27585 18.9739 7.6497 18.337C7.02355 17.7003 6.68405 16.8568 6.6935 15.9629C6.71345 14.1457 8.20795 12.667 10.0259 12.6663C10.3881 12.6663 10.7441 12.7233 11.0836 12.8367C11.199 12.8752 11.3184 12.8952 11.4381 12.8952C12.0531 12.8952 12.5535 12.3936 12.5535 11.7769C12.5535 11.2946 12.2445 10.8679 11.7853 10.7154C11.2204 10.5274 10.6285 10.4319 10.0269 10.4319C8.55515 10.4319 7.1674 11.0006 6.11915 12.0335C5.07265 13.0653 4.4829 14.4418 4.4598 15.91C4.436 17.4084 4.99495 18.8207 6.03375 19.8878C7.0715 20.9546 8.46695 21.551 9.9632 21.5678C9.9842 21.5678 10.0059 21.5685 10.0273 21.5685C11.5179 21.5685 12.9183 20.9868 13.9707 19.9312C15.0186 18.8801 15.5958 17.484 15.5958 16V4.24105C15.7309 4.2365 15.8663 4.2344 15.9997 4.2344C22.4876 4.2344 27.7653 9.51275 27.7653 16C27.7653 18.6789 26.8374 21.3039 25.1536 23.3916H25.1539Z" fill="currentColor"/>
</svg>
