<svg width="32" height="32" viewBox="0 0 32 32" fill="none" xmlns="http://www.w3.org/2000/svg">
<path opacity="0.25" d="M16 28C22.6275 28 28 22.6275 28 16C28 11.68 25.9629 8.86667 24.9444 8C22.7472 5.545 19.554 4 16 4C9.37259 4 4 9.37259 4 16C4 22.6275 9.37259 28 16 28Z" fill="currentColor"/>
<path d="M20.2223 1.33334L21.0195 2.8237C21.5586 3.8313 21.828 4.33509 21.6499 4.55085C21.4716 4.76661 20.8847 4.59236 19.7108 4.24385C18.5372 3.89542 17.2912 3.70794 16 3.70794C9.00443 3.70794 3.33337 9.21129 3.33337 16C3.33337 18.2389 3.9502 20.338 5.02795 22.146M11.7778 30.6667L10.9805 29.1763C10.4415 28.1687 10.172 27.6649 10.3502 27.4492C10.5284 27.2333 11.1154 27.4076 12.2892 27.7561C13.4628 28.1045 14.7088 28.292 16 28.292C22.9956 28.292 28.6667 22.7887 28.6667 16C28.6667 13.7611 28.0499 11.662 26.9722 9.85398" stroke="currentColor" stroke-width="2.5" stroke-linecap="round" stroke-linejoin="round"/>
</svg>
