<svg width="32" height="32" viewBox="0 0 32 32" fill="none" xmlns="http://www.w3.org/2000/svg">
<path opacity="0.25" d="M24.7812 18.1368L23.4925 19.1518C21.4048 20.7965 20.3609 21.6188 19.5138 21.2437C18.6666 20.8686 18.6666 19.5841 18.6666 17.015V14.9849C18.6666 12.4158 18.6666 11.1313 19.5138 10.7562C20.3609 10.3812 21.4048 11.2035 23.4925 12.8481L24.781 13.8632C26.0381 14.8534 26.6666 15.3486 26.6666 16C26.6666 16.6513 26.0381 17.1465 24.7812 18.1368Z" fill="currentColor"/>
<path d="M24.7812 18.1368L23.4925 19.1518C21.4048 20.7965 20.3609 21.6188 19.5138 21.2437C18.6666 20.8686 18.6666 19.5841 18.6666 17.015V14.9849C18.6666 12.4158 18.6666 11.1313 19.5138 10.7562C20.3609 10.3812 21.4048 11.2035 23.4925 12.8481L24.781 13.8632C26.0381 14.8534 26.6666 15.3486 26.6666 16C26.6666 16.6513 26.0381 17.1465 24.7812 18.1368Z" stroke="currentColor" stroke-width="2.5" stroke-linecap="round" stroke-linejoin="round"/>
<path d="M18.6667 16H5.33337" stroke="currentColor" stroke-width="2.5" stroke-linecap="round" stroke-linejoin="round"/>
</svg>
