<svg width="32" height="32" viewBox="0 0 32 32" fill="none" xmlns="http://www.w3.org/2000/svg">
<path opacity="0.25" d="M5.33337 16C5.33337 11.6277 5.33337 9.44156 6.41847 7.89189C6.81991 7.31856 7.31859 6.81988 7.89192 6.41844C9.44159 5.33334 11.6277 5.33334 16 5.33334C20.3723 5.33334 22.5584 5.33334 24.1082 6.41844C24.6815 6.81988 25.1802 7.31856 25.5816 7.89189C26.6667 9.44156 26.6667 11.6277 26.6667 16C26.6667 20.3723 26.6667 22.5584 25.5816 24.1081C25.1802 24.6815 24.6815 25.1801 24.1082 25.5816C22.5584 26.6667 20.3723 26.6667 16 26.6667C11.6277 26.6667 9.44159 26.6667 7.89192 25.5816C7.31859 25.1801 6.81991 24.6815 6.41847 24.1081C5.33337 22.5584 5.33337 20.3723 5.33337 16Z" fill="currentColor"/>
<path d="M5.33337 16C5.33337 11.6277 5.33337 9.44156 6.41847 7.89189C6.81991 7.31856 7.31859 6.81988 7.89192 6.41844C9.44159 5.33334 11.6277 5.33334 16 5.33334C20.3723 5.33334 22.5584 5.33334 24.1082 6.41844C24.6815 6.81988 25.1802 7.31856 25.5816 7.89189C26.6667 9.44156 26.6667 11.6277 26.6667 16C26.6667 20.3723 26.6667 22.5584 25.5816 24.1081C25.1802 24.6815 24.6815 25.1801 24.1082 25.5816C22.5584 26.6667 20.3723 26.6667 16 26.6667C11.6277 26.6667 9.44159 26.6667 7.89192 25.5816C7.31859 25.1801 6.81991 24.6815 6.41847 24.1081C5.33337 22.5584 5.33337 20.3723 5.33337 16Z" stroke="currentColor" stroke-width="2.5"/>
</svg>
