<svg width="32" height="32" viewBox="0 0 32 32" fill="none" xmlns="http://www.w3.org/2000/svg">
<path opacity="0.25" d="M18.8076 21.748C21.8208 18.2555 24.7296 15.8861 28.3835 12.5309C29.4771 11.5266 29.646 9.76628 28.788 8.51908C27.8763 7.19357 26.1436 6.92864 24.971 7.9824C21.624 10.9898 19.0202 13.8855 16.5502 16.9805C16.4206 17.1429 16.3558 17.2241 16.2884 17.2699C16.1179 17.3857 15.9047 17.3871 15.7331 17.2731C15.6654 17.2281 15.6004 17.1484 15.4706 16.9892L14.1544 15.3748C12.9535 13.9017 10.7995 14.0648 9.79676 15.7047C9.09508 16.8523 9.19907 18.3731 10.049 19.3944L12.113 21.8748C13.6567 23.7299 14.4286 24.6575 15.3552 24.6667C16.2819 24.6757 17.1238 23.6997 18.8076 21.748Z" fill="currentColor"/>
<path d="M9.76812 24.1227C9.33165 24.4889 8.95371 24.6705 8.56015 24.6667C7.65327 24.6575 6.89784 23.7299 5.387 21.8748L3.36704 19.3944C2.53519 18.3731 2.43341 16.8523 3.12013 15.7047C3.90456 14.3939 5.40895 14.0267 6.58139 14.6844M14.5629 11.3333C15.6177 10.2211 16.7433 9.10961 17.971 7.9824C18.5633 7.43859 19.3016 7.24597 20 7.36909" stroke="currentColor" stroke-width="2.5" stroke-linecap="round"/>
<path d="M18.8076 21.748C21.8208 18.2555 24.7296 15.8861 28.3835 12.5309C29.4771 11.5266 29.646 9.76628 28.788 8.51908C27.8763 7.19357 26.1436 6.92864 24.971 7.9824C21.624 10.9898 19.0202 13.8855 16.5502 16.9805C16.4206 17.1429 16.3558 17.2241 16.2884 17.2699C16.1179 17.3857 15.9047 17.3871 15.7331 17.2731C15.6654 17.2281 15.6004 17.1484 15.4706 16.9892L14.1544 15.3748C12.9535 13.9017 10.7995 14.0648 9.79676 15.7047C9.09508 16.8523 9.19907 18.3731 10.049 19.3944L12.113 21.8748C13.6567 23.7299 14.4286 24.6575 15.3552 24.6667C16.2819 24.6757 17.1238 23.6997 18.8076 21.748Z" stroke="currentColor" stroke-width="2.5"/>
</svg>
