<svg width="32" height="32" viewBox="0 0 32 32" fill="none" xmlns="http://www.w3.org/2000/svg">
<path opacity="0.25" d="M15.2991 23.0744C19.3166 18.7759 23.195 15.8599 28.0669 11.7304C29.525 10.4943 29.7502 8.32772 28.6063 6.79272C27.3906 5.16132 25.0805 4.83524 23.5169 6.13218C19.0543 9.83362 15.5825 13.3976 12.2891 17.2068C12.1163 17.4067 12.0299 17.5067 11.9402 17.5629C11.7128 17.7056 11.4286 17.7071 11.1997 17.5668C11.1094 17.5115 11.0228 17.4135 10.8497 17.2175L9.09479 15.2305C7.49355 13.4175 4.62152 13.6183 3.2846 15.6365C2.34903 17.0489 2.48767 18.9207 3.62097 20.1779L6.37288 23.2305C8.4312 25.5137 9.46036 26.6555 10.6959 26.6665C11.9314 26.6777 13.054 25.4767 15.2991 23.0744Z" fill="currentColor"/>
<path d="M15.2991 23.0744C19.3166 18.7759 23.195 15.8599 28.0669 11.7304C29.525 10.4943 29.7502 8.32772 28.6063 6.79272C27.3906 5.16132 25.0805 4.83524 23.5169 6.13218C19.0543 9.83362 15.5825 13.3976 12.2891 17.2068C12.1163 17.4067 12.0299 17.5067 11.9402 17.5629C11.7128 17.7056 11.4286 17.7071 11.1997 17.5668C11.1094 17.5115 11.0228 17.4135 10.8497 17.2175L9.09479 15.2305C7.49355 13.4175 4.62152 13.6183 3.2846 15.6365C2.34903 17.0489 2.48767 18.9207 3.62097 20.1779L6.37288 23.2305C8.4312 25.5137 9.46036 26.6555 10.6959 26.6665C11.9314 26.6777 13.054 25.4767 15.2991 23.0744Z" stroke="currentColor" stroke-width="2.5"/>
</svg>
