<svg width="32" height="32" viewBox="0 0 32 32" fill="none" xmlns="http://www.w3.org/2000/svg">
<path opacity="0.25" d="M21.3333 4H10.6666C6.89539 4 5.00977 4 3.8382 5.17157C2.66663 6.34315 2.66663 8.22876 2.66663 12V14.6667C2.66663 18.4379 2.66663 20.3235 3.8382 21.4951C5.00977 22.6667 6.89539 22.6667 10.6666 22.6667H21.3333C25.1045 22.6667 26.9901 22.6667 28.1617 21.4951C29.3333 20.3235 29.3333 18.4379 29.3333 14.6667V12C29.3333 8.22876 29.3333 6.34315 28.1617 5.17157C26.9901 4 25.1045 4 21.3333 4Z" fill="currentColor"/>
<path d="M21.3333 4H10.6666C6.89539 4 5.00977 4 3.8382 5.17157C2.66663 6.34315 2.66663 8.22876 2.66663 12V14.6667C2.66663 18.4379 2.66663 20.3235 3.8382 21.4951C5.00977 22.6667 6.89539 22.6667 10.6666 22.6667H21.3333C25.1045 22.6667 26.9901 22.6667 28.1617 21.4951C29.3333 20.3235 29.3333 18.4379 29.3333 14.6667V12C29.3333 8.22876 29.3333 6.34315 28.1617 5.17157C26.9901 4 25.1045 4 21.3333 4Z" stroke="currentColor" stroke-width="2.5" stroke-linecap="round" stroke-linejoin="round"/>
<path d="M18.6666 28H21.3333M18.6666 28C17.5621 28 16.6666 27.1045 16.6666 26V22.6667H16M18.6666 28H13.3333M16 22.6667H15.3333V26C15.3333 27.1045 14.4378 28 13.3333 28M16 22.6667V28M13.3333 28H10.6666" stroke="currentColor" stroke-width="2.5" stroke-linecap="round" stroke-linejoin="round"/>
</svg>
