<svg width="32" height="32" viewBox="0 0 32 32" fill="none" xmlns="http://www.w3.org/2000/svg">
<path opacity="0.25" fill-rule="evenodd" clip-rule="evenodd" d="M3.56018 20.1916C2.33263 18.6061 2.3614 16.3524 3.69894 14.8585C7.33038 10.8028 11.1255 7.08857 15.296 3.50411C15.7084 3.14973 16.2137 2.92807 16.7552 2.87831C19.1493 2.65832 26.047 2.20637 27.9204 4.07961C29.7936 5.95285 29.3416 12.8506 29.1216 15.2448C29.0718 15.7862 28.8502 16.2916 28.4958 16.7038C24.9113 20.8745 21.1972 24.6696 17.1414 28.301C15.6476 29.6385 13.3938 29.6673 11.8084 28.4397C8.66228 26.0038 5.99611 23.3377 3.56018 20.1916ZM23.3333 6.66663C24.4378 6.66663 25.3333 7.56205 25.3333 8.66663C25.3333 9.7712 24.4378 10.6666 23.3333 10.6666C22.2288 10.6666 21.3333 9.7712 21.3333 8.66663C21.3333 7.56205 22.2288 6.66663 23.3333 6.66663Z" fill="currentColor"/>
<path d="M23.3334 6.66699C24.4379 6.66699 25.3334 7.56242 25.3334 8.66699C25.3334 9.77156 24.4379 10.667 23.3334 10.667C22.2288 10.667 21.3334 9.77156 21.3334 8.66699C21.3334 7.56242 22.2288 6.66699 23.3334 6.66699Z" stroke="currentColor" stroke-width="2.5" stroke-linecap="round" stroke-linejoin="round"/>
<path d="M3.69894 14.8585C2.3614 16.3524 2.33263 18.6061 3.56018 20.1916C5.99611 23.3377 8.66228 26.0038 11.8084 28.4397C13.3938 29.6673 15.6476 29.6385 17.1414 28.301C21.1972 24.6696 24.9113 20.8745 28.4958 16.7038C28.8502 16.2916 29.0718 15.7862 29.1216 15.2448C29.3416 12.8506 29.7936 5.95285 27.9204 4.07961C26.047 2.20637 19.1493 2.65832 16.7552 2.87831C16.2137 2.92807 15.7084 3.14973 15.296 3.50411C11.1255 7.08857 7.33038 10.8028 3.69894 14.8585Z" stroke="currentColor" stroke-width="2.5"/>
<path d="M9.33337 18.667L13.3333 22.667" stroke="currentColor" stroke-width="2.5" stroke-linecap="round" stroke-linejoin="round"/>
</svg>
