<svg width="32" height="32" viewBox="0 0 32 32" fill="none" xmlns="http://www.w3.org/2000/svg">
<path opacity="0.25" d="M22 2.66666L22.3439 3.59603C22.7948 4.81468 23.0203 5.42402 23.4648 5.86851C23.9094 6.31302 24.5187 6.53848 25.7374 6.98943L26.6667 7.33332L25.7374 7.67722C24.5187 8.12816 23.9094 8.35364 23.4648 8.79814C23.0203 9.24263 22.7948 9.85196 22.3439 11.0706L22 12L21.6562 11.0706C21.2052 9.85196 20.9798 9.24263 20.5352 8.79814C20.0907 8.35364 19.4814 8.12816 18.2627 7.67722L17.3334 7.33332L18.2627 6.98943C19.4814 6.53848 20.0907 6.313 20.5352 5.86851C20.9798 5.42402 21.2052 4.81468 21.6562 3.59603L22 2.66666Z" fill="currentColor"/>
<path opacity="0.25" d="M18 25.3333V26.6667C18 27.9237 18 28.5523 17.6094 28.9428C17.2189 29.3333 16.5904 29.3333 15.3333 29.3333C14.0762 29.3333 13.4477 29.3333 13.0571 28.9428C12.6666 28.5523 12.6666 27.9237 12.6666 26.6667V25.3333H18Z" fill="currentColor"/>
<path d="M25.3334 12.8276C25.3334 16.2665 23.6403 18.9136 21.0644 20.6556C20.4644 21.0613 20.1644 21.2643 20.0163 21.4949C19.8683 21.7256 19.8178 22.0285 19.7168 22.6343L19.6383 23.1051C19.461 24.1693 19.3723 24.7013 18.9992 25.0173C18.6263 25.3333 18.0868 25.3333 17.0079 25.3333H13.5259C12.4471 25.3333 11.9076 25.3333 11.5346 25.0173C11.1616 24.7013 11.073 24.1693 10.8956 23.1051L10.8171 22.6343C10.7165 22.0305 10.6662 21.7287 10.5196 21.4991C10.3731 21.2695 10.0724 21.064 9.47113 20.6529C6.92257 18.9109 5.33337 16.2648 5.33337 12.8276C5.33337 7.21586 9.81052 2.66666 15.3334 2.66666C16.0183 2.66666 16.6871 2.73663 17.3334 2.86991" stroke="currentColor" stroke-width="2.5" stroke-linecap="round" stroke-linejoin="round"/>
<path d="M22 2.66666L22.3439 3.59603C22.7948 4.81468 23.0203 5.42402 23.4648 5.86851C23.9094 6.31302 24.5187 6.53848 25.7374 6.98943L26.6667 7.33332L25.7374 7.67722C24.5187 8.12816 23.9094 8.35364 23.4648 8.79814C23.0203 9.24263 22.7948 9.85196 22.3439 11.0706L22 12L21.6562 11.0706C21.2052 9.85196 20.9798 9.24263 20.5352 8.79814C20.0907 8.35364 19.4814 8.12816 18.2627 7.67722L17.3334 7.33332L18.2627 6.98943C19.4814 6.53848 20.0907 6.31302 20.5352 5.86851C20.9798 5.42402 21.2052 4.81468 21.6562 3.59603L22 2.66666Z" stroke="currentColor" stroke-width="2.5" stroke-linejoin="round"/>
<path d="M18 25.3333V26.6667C18 27.9237 18 28.5523 17.6094 28.9428C17.2189 29.3333 16.5904 29.3333 15.3333 29.3333C14.0762 29.3333 13.4477 29.3333 13.0571 28.9428C12.6666 28.5523 12.6666 27.9237 12.6666 26.6667V25.3333" stroke="currentColor" stroke-width="2.5" stroke-linejoin="round"/>
</svg>
