<svg width="32" height="32" viewBox="0 0 32 32" fill="none" xmlns="http://www.w3.org/2000/svg">
<path opacity="0.25" d="M5.36684 11.9665C4.01888 10.6185 3.66793 8.65114 4.31397 6.98064L6.20997 8.87664H8.87664V6.20997L6.98064 4.31397C8.65114 3.66793 10.6185 4.01888 11.9665 5.36684C13.3149 6.71529 13.6657 8.68365 13.0186 10.3546L21.6455 18.9813C23.3164 18.3343 25.2847 18.6851 26.6332 20.0335C27.9811 21.3815 28.3321 23.3488 27.686 25.0193L25.79 23.1233H23.1233V25.79L25.0193 27.686C23.3488 28.3321 21.3815 27.9811 20.0335 26.6332C18.686 25.2857 18.3348 23.3193 18.9799 21.6492L10.3508 13.0201C8.6807 13.6652 6.71428 13.3139 5.36684 11.9665Z" fill="currentColor"/>
<path d="M17.3334 14.6667L24 8" stroke="currentColor" stroke-width="2.5"/>
<path d="M25.3333 9.33329L22.6666 6.66663L26 4.66663L27.3333 5.99996L25.3333 9.33329Z" stroke="currentColor" stroke-width="2.5" stroke-linejoin="round"/>
<path d="M5.36684 11.9665C4.01888 10.6185 3.66793 8.65114 4.31397 6.98064L6.20997 8.87664H8.87664V6.20997L6.98064 4.31397C8.65114 3.66793 10.6185 4.01888 11.9665 5.36684C13.3149 6.71529 13.6657 8.68365 13.0186 10.3546L21.6455 18.9813C23.3164 18.3343 25.2847 18.6851 26.6332 20.0335C27.9811 21.3815 28.3321 23.3488 27.686 25.0193L25.79 23.1233H23.1233V25.79L25.0193 27.686C23.3488 28.3321 21.3815 27.9811 20.0335 26.6332C18.686 25.2857 18.3348 23.3193 18.9799 21.6492L10.3508 13.0201C8.6807 13.6652 6.71428 13.3139 5.36684 11.9665Z" stroke="currentColor" stroke-width="2.5" stroke-linejoin="round"/>
<path d="M16.2706 19.3334L8.79858 26.8055C8.09482 27.5092 6.95382 27.5092 6.25006 26.8055L5.19444 25.7499C4.49069 25.0462 4.49069 23.9051 5.19444 23.2014L12.6665 15.7292" stroke="currentColor" stroke-width="2.5" stroke-linejoin="round"/>
</svg>
