<svg width="32" height="32" viewBox="0 0 32 32" fill="none" xmlns="http://www.w3.org/2000/svg">
<path opacity="0.25" d="M18.6665 8.66668H13.3333C8.94995 8.66668 6.75829 8.66668 5.28316 9.87729C5.01311 10.0989 4.76548 10.3465 4.54387 10.6166C3.33325 12.0917 3.33325 14.2833 3.33325 18.6667V14C3.33325 8.97169 3.33325 6.45754 4.89535 4.89544C6.45744 3.33334 8.9716 3.33334 13.9999 3.33334H17.9999C23.0283 3.33334 25.5424 3.33334 27.1045 4.89544C28.6665 6.45754 28.6665 8.97169 28.6665 14V18.6667C28.6665 14.2833 28.6665 12.0917 27.456 10.6166C27.2344 10.3465 26.9867 10.0989 26.7167 9.87729C25.2416 8.66668 23.0499 8.66668 18.6665 8.66668Z" fill="currentColor"/>
<path d="M18.6665 28.6667H13.3333C8.94995 28.6667 6.75829 28.6667 5.28316 27.456C5.01311 27.2344 4.76548 26.9868 4.54387 26.7168C3.33325 25.2416 3.33325 23.05 3.33325 18.6667C3.33325 14.2833 3.33325 12.0917 4.54387 10.6166C4.76548 10.3465 5.01311 10.0989 5.28316 9.87727C6.75829 8.66666 8.94995 8.66666 13.3333 8.66666H18.6665C23.0499 8.66666 25.2416 8.66666 26.7167 9.87727C26.9867 10.0989 27.2344 10.3465 27.456 10.6166C28.6665 12.0917 28.6665 14.2833 28.6665 18.6667C28.6665 23.05 28.6665 25.2416 27.456 26.7168C27.2344 26.9868 26.9867 27.2344 26.7167 27.456C25.2416 28.6667 23.0499 28.6667 18.6665 28.6667Z" stroke="currentColor" stroke-width="2.5" stroke-linecap="round" stroke-linejoin="round"/>
<path d="M3.33325 19.3333V14C3.33325 8.97169 3.33325 6.45754 4.89535 4.89544C6.45744 3.33334 8.9716 3.33334 13.9999 3.33334H17.9999C23.0283 3.33334 25.5424 3.33334 27.1045 4.89544C28.6665 6.45754 28.6665 8.97169 28.6665 14V19.3333" stroke="currentColor" stroke-width="2.5" stroke-linecap="round" stroke-linejoin="round"/>
<path d="M19.9998 18C19.9998 18 17.054 14 15.9998 14C14.9458 14 11.9999 18 11.9999 18M15.9998 14.6667V23.3333" stroke="currentColor" stroke-width="2.5" stroke-linecap="round" stroke-linejoin="round"/>
</svg>
