<svg width="492" height="429" viewBox="0 0 492 429" fill="none" xmlns="http://www.w3.org/2000/svg">
<path d="M267.4 202.6C267.4 202.6 258.4 213.5 254.7 216C251 218.5 238.4 229.1 238.4 229.1C238.4 229.1 229.8 218.9 229.5 218.5C229.1 218.1 223.5 206.7 223.5 206.7L230.4 202.5H267.4V202.6Z" fill="#F2C8B0"/>
<path d="M220.3 203.9C220.3 203.9 231.8 218.1 238.5 218.1C245.2 218.1 263.9 211.7 263.9 211.7L266 201.9L257.6 198.4L234.8 199.6L228.4 202.5L220.3 203.9Z" fill="#E4977D"/>
<path d="M300.2 412.5C296.5 414.1 292.7 414.9 288.9 415.2C278.2 416 268.5 412.7 267.2 411.6C265.4 410.1 265.8 398.3 265.8 398.3C265.8 398.3 277.3 395.8 285.9 395.1C290 394.8 293.4 394.8 294.6 395.8C298.2 398.6 304 410.9 300.2 412.5Z" fill="#72757E"/>
<path d="M300.2 412.5C296.5 414.1 292.7 414.9 288.9 415.2C292.1 412.2 295.4 405.8 285.8 395.2C289.9 394.9 293.3 394.9 294.5 395.9C298.2 398.6 304 410.9 300.2 412.5Z" fill="#53555C"/>
<path d="M241.4 410.7C240.5 412.4 232.1 413.1 228.6 412.9C228 412.9 227.6 412.8 227.3 412.7C225.8 412.2 205.8 415.7 198.8 412.9C197.8 412.5 197.1 412 196.7 411.4C193.4 406 199.7 402 211.9 395.7C212.8 395.2 213.7 394.8 214.7 394.5C219.4 393 224.4 393.2 228.9 394C235.9 395.3 241.4 398.1 241.4 398.1C241.4 398.1 242.4 408.8 241.4 410.7Z" fill="#72757E"/>
<path d="M241.4 410.7C240.5 412.4 232.1 413.1 228.6 412.9C232.1 408.7 235.5 401.6 229 394C236 395.3 241.5 398.1 241.5 398.1C241.5 398.1 242.4 408.8 241.4 410.7Z" fill="#53555C"/>
<path d="M213.1 398C210.1 399.8 197.8 403.3 198.8 412.9C197.8 412.5 197.1 412 196.7 411.4C193.4 406 199.7 402 211.9 395.7C212.8 395.2 213.7 394.8 214.7 394.5C214.9 395.8 214.6 397.2 213.1 398Z" fill="#9DA1AD"/>
<path d="M234.3 399.5C229.8 399.7 223 398.8 213.1 395.7C212.2 395.4 211.2 395.1 210.2 394.8C210.2 394.8 207 373.7 205.7 361.6C204.9 353.4 202 337.3 202.3 326.4C202.4 322.8 202.9 319.8 203.9 317.8C204.4 316.8 205 316.1 205.7 315.6C212.7 311.2 288.9 313.5 295.5 321.5V395.2C295.5 395.2 292.2 397.5 286 398.7C280.8 399.8 273.5 400.1 264.2 397.9L248.5 337.9L243.5 395.8C243.5 395.7 242.2 399.2 234.3 399.5Z" fill="#CCAF76"/>
<path d="M213.1 395.7C212.2 395.4 211.2 395.1 210.2 394.8C210.2 394.8 207 373.7 205.7 361.6C204.9 353.4 202 337.3 202.3 326.4C202.4 322.8 202.9 319.8 203.9 317.8L206.6 318.6C206.6 318.6 205.3 332.1 207.9 349.8C209.9 363.6 213.2 385.6 213.1 395.7Z" fill="#F2CF8C"/>
<path d="M295.5 321.4V395.1C295.5 395.1 292.2 397.4 286 398.6C286.1 398.3 286.2 398 286.3 397.7C291.1 386.7 286.3 331.7 286.3 331.7C229.7 335.1 209.2 329.5 202.4 326.3C202.6 321 203.5 316.9 205.8 315.5C212.8 311.2 288.9 313.4 295.5 321.4Z" fill="#998358"/>
<path d="M166 218.2C163.7 233.2 152.7 238.4 152.7 238.4C133.8 239.2 136.4 229.2 136.4 229.2C131.6 226.7 134 220.6 134 220.6C130 216.4 131.4 213.1 132.6 211.5C133.1 210.8 133.7 210.4 133.7 210.4L149.4 211.8C134.3 210.3 135.7 202.9 136.8 199.9C137.1 199.2 137.8 198.9 138.5 199.2C140.2 200 144.2 201.6 151.9 203.5C158.7 205.2 162.5 210.4 164.4 214C165.5 216.4 166 218.2 166 218.2Z" fill="#FCD1B1"/>
<path d="M166 218.2C163.7 233.2 152.7 238.4 152.7 238.4C133.8 239.2 136.4 229.2 136.4 229.2C131.6 226.7 134 220.6 134 220.6C130 216.4 131.4 213.1 132.6 211.5C134.6 212 136.5 212.9 136.4 214.4C136.2 217.5 135.5 220 135.5 220C135.5 220 140.4 224.2 139.2 226.9C138.1 229.4 143.5 232.7 144.1 234.5C144.3 232 145.8 222.1 149.9 224.3C154.8 227 160 224.2 163 216.7C163.4 215.8 163.8 214.9 164.3 214.2C165.5 216.4 166 218.2 166 218.2Z" fill="#EAA78D"/>
<path d="M158.7 227.3C157.8 228.3 156.3 228.4 155.3 227.6L73.3 157.4C75.7 156.6 76.4 153.7 76.4 153.7L158.4 223.9C159.4 224.8 159.5 226.3 158.7 227.3Z" fill="#8C7851"/>
<path d="M76.4 153.7C76.4 153.7 75.7 156.6 73.3 157.4L70.4 154.9L70.8 154.4C71.8 153.8 72.5 152.8 72.8 152L73.5 151.2L76.4 153.7Z" fill="#D9BA7D"/>
<path d="M145.3 220.7C147.6 220.5 150.2 221.5 149.8 224.3C149.3 227.1 146.2 228.1 143.6 228.6C141.2 229 138.7 229.2 136.3 229.2" fill="#FCD1B1"/>
<path d="M133.6 210.8C133.6 210.8 144.1 211.9 145.7 212.9C145.7 212.9 149.4 214.5 148.6 217.5C147.8 220.5 145.3 220.6 145.3 220.6C145.3 220.6 142.4 221.7 134.2 220" fill="#FCD1B1"/>
<path d="M248.5 337.9L243.5 395.8C243.5 395.8 242.3 399.3 234.3 399.6C236.1 396.5 238.4 389.1 238.8 371.2C239.3 341.1 236.7 332.8 236.7 332.8L248.5 337.9Z" fill="#998358"/>
<path d="M323.5 294.1C319.8 297.1 315.2 298.5 311.5 298.9C302.2 299.9 298.8 292.5 298.8 292.5L299 296.2L300.2 319.5C295.8 321.7 290.2 323.2 284.3 324.4C265 328.1 241.9 327.1 241.9 327.1L236.7 312.5L238.8 230.6L245.2 218.1L267.7 212L272.2 210.8C272.2 210.8 290.3 214.9 295.5 219.3C299.5 222.7 312.6 236.6 321.6 253C324.3 257.9 326.7 263.1 328.3 268.2C332.7 281.7 329.1 289.7 323.5 294.1Z" fill="#CCAF76"/>
<path d="M321.7 253.1C306.9 250.1 264.8 232.3 263.5 222.1C263 218.1 265 214.7 267.7 212.1L272.2 210.9C272.2 210.9 290.3 215 295.5 219.4C299.5 222.8 312.6 236.7 321.7 253.1Z" fill="#998358"/>
<path d="M238.8 230.6L236.7 312.5L233.4 327.2C233.4 327.2 211.6 325.2 201.1 321.2C198.9 320.4 197.2 319.5 196.3 318.5L202.3 259.4C202.2 259.5 200.6 261 197.6 262.2C193.7 263.8 187.5 264.9 179.7 261.5C165.8 255.5 160.3 247.6 160.3 247.6C160.3 247.6 152.7 244.5 150.5 239.9C150.5 239.9 153 238.6 155.9 236C159.4 233 163.7 228.3 165.3 222.2C165.6 220.9 165.9 219.6 166 218.2C166 218.2 175 222.8 175.2 224.2C175.2 224.2 185.2 229.3 186.7 232.1C186.7 232.1 196.9 223.4 208.1 216.7C213.8 213.3 219.7 210.4 224.7 209.4L236.7 219.3L238.8 230.6Z" fill="#CCAF76"/>
<path d="M298.9 296.2L300.1 319.5C295.7 321.7 290.1 323.2 284.2 324.4C288.6 312.9 285.3 292.8 285.3 292.8C282 290.2 278.8 283.8 278.8 283.8C278.8 283.8 268.5 279.7 259.9 276.8C251.3 273.9 251.9 270.8 251.9 270.8L290.7 251.1L310.9 258.9C310.9 258.9 300.1 273 298.8 292.7C298.7 293.7 298.7 294.9 298.9 296.2Z" fill="#998358"/>
<path d="M323.5 294.1C319.8 297.1 315.2 298.5 311.5 298.9C302.2 299.9 298.8 292.5 298.8 292.5C297.8 280.6 318.5 271.7 318.5 271.7C318.5 271.7 322.7 269.2 324.2 273.4C325.2 276.6 328.7 285.7 323.5 294.1Z" fill="#998358"/>
<path d="M205.8 238L201.1 321.3C198.9 320.5 197.2 319.6 196.3 318.6L202.3 259.5C202.2 259.6 200.6 261.1 197.6 262.3L205.8 238Z" fill="#F2CF8C"/>
<path d="M208.1 216.6C206.3 220.8 197.5 228.3 194.6 230.1C190.9 232.5 188.6 236.3 188.6 236.3C186 233.2 174.5 227.3 174.5 227.3C173.1 223 165.2 222 165.2 222C165.5 220.7 165.8 219.4 165.9 218C165.9 218 174.9 222.6 175.1 224C175.1 224 185.1 229.1 186.6 231.9C186.7 232 196.9 223.3 208.1 216.6Z" fill="#F2CF8C"/>
<path d="M205.8 238L202.2 259.4C202 259.6 193.4 267.4 179.6 261.4C165.7 255.4 160.2 247.5 160.2 247.5C160.2 247.5 152.6 244.4 150.4 239.8C150.4 239.8 152.9 238.5 155.8 235.9C157.9 238.9 160.9 242.4 164.6 244.4C164.6 244.4 185.7 264.1 197.4 252.4C202.5 246.3 205.7 238.2 205.8 238Z" fill="#998358"/>
<path d="M238.8 230.6C238.8 230.6 246.6 223.7 248.2 225.8C249.8 227.9 256.5 234.3 258.1 231.9C259.7 229.5 253.6 218 253.6 218H245.2L238.8 230.6Z" fill="#998358"/>
<path d="M224.7 229.1C224.7 229.1 230.8 228.2 232.1 226.5C233.4 224.8 238.5 229.1 238.5 229.1L236.7 219.2C236.7 219.3 229.3 219.3 224.7 229.1Z" fill="#998358"/>
<path d="M207.8 252.4L207.1 268.2C207.1 268.2 206.7 271 214.9 271.3C223.1 271.6 227.3 272.5 227.9 267.7C228.5 262.9 228.1 252.9 228.1 252.9L207.8 252.4Z" fill="#998358"/>
<path d="M207.9 245.6C207.9 245.6 206.8 250.2 207.1 251.6C207.3 253.1 216.9 256.8 216.9 256.8L228.8 252.7L229.6 246L207.9 245.6Z" fill="#CCAF76"/>
<path d="M224.7 209.4C224.7 209.4 221.6 210.6 222.6 218C223.6 225.4 224.7 229.2 224.7 229.2C224.7 229.2 229 219.9 236.7 219.3C236.7 219.3 229.7 212 229.5 208.6C229.3 205.2 224.7 209.4 224.7 209.4Z" fill="#977F4F"/>
<path d="M245.2 218.2C245.2 218.2 261.6 209.7 265.4 203.5L272.3 210.8L258.1 232C258.1 232 249.9 217.7 245.2 218.2Z" fill="#998358"/>
<path d="M162.2 128.3C162.2 128.3 140.1 158.1 169.7 176.3C199.3 194.5 162.2 128.3 162.2 128.3Z" fill="#EAA78D"/>
<path d="M319.3 123.2C319.2 125.8 318.4 134.9 317.3 144.9C316.8 148.8 316.3 152.9 315.7 156.7C314.6 163.9 313.4 170.4 312 173.9C312 173.9 297.7 206.6 239.6 209.2C232 209.5 225.3 209.3 219.3 208.7C216.2 208.4 213.2 207.9 210.5 207.4C178.1 201 171.4 180.5 168.5 171.2C164.9 159.7 165.6 141.1 160.9 125.7C157 112.8 161 87.6001 167.3 74.8001C168.6 72.2001 169.9 70.2001 171.4 68.8001C171.4 68.8001 172.3 69.2001 174 69.5001C177.9 70.3001 185.9 71.1001 195.5 66.5001C195.5 66.5001 193.1 71.9001 182.2 74.8001C182.2 74.8001 195.6 73.4001 202.1 64.7001C202.1 64.7001 216.2 65.2001 223.8 56.6001C223.8 56.6001 228.5 60.8001 242.4 57.5001C242.4 57.5001 234.1 58.3001 229.4 55.8001C229.7 55.9001 236.9 57.8001 245.3 54.7001C253.9 51.5001 265.7 49.7001 273.3 51.5001C281 53.2001 289.3 53.6001 289.3 53.6001C289.3 53.6001 287.7 56.2001 279.1 54.2001C279.1 54.2001 285.4 58.5001 291.9 55.2001C294.7 53.7001 297.3 53.4001 297.3 53.4001C297.3 53.4001 295.1 59.8001 299.1 65.3001C299.1 65.3001 298.1 61.2001 298.8 58.7001C298.8 58.7001 300 63.3001 302.8 66.1001C305.6 69.0001 307.6 74.8001 307.5 77.1001C307.5 77.1001 308.4 73.2001 307.1 69.8001C307.1 69.8001 309.8 69.8001 309.8 80.4001C309.8 90.9001 313.7 97.5001 313.9 97.8001C313.9 97.6001 312 88.8001 312.9 85.7001C312.9 85.7001 313.8 95.4001 317.3 101.1C320.7 106.7 319.6 117.7 319.3 123.2Z" fill="#FCD1B1"/>
<path d="M346.8 159.5C334.2 185.2 312 173.9 312 173.9C313.4 170.4 314.7 163.9 315.7 156.7C316.3 152.9 316.8 148.8 317.3 144.9C320 138.2 324.6 130.1 331.5 127.6C344.1 123 359.4 133.8 346.8 159.5Z" fill="#FCD1B1"/>
<path d="M289.8 136.9C289.8 137.4 289.8 137.8 289.8 138.3C289.8 138.4 289.8 138.5 289.8 138.5C289 148.4 281.1 156.1 271.5 156.1C261.4 156.1 253.2 147.5 253.2 136.9C253.2 133.3 254.2 129.8 255.9 126.9C256.9 125.2 258.1 123.7 259.6 122.4C260.8 121.3 262.1 120.4 263.5 119.7C262.1 120.9 260.8 122.4 259.8 124.1C257.9 127.2 256.8 131.1 256.8 135.4C256.8 145.7 263.5 154 271.7 154C279.9 154 286.6 145.7 286.6 135.4C286.6 131 285.4 127 283.4 123.8C282.4 122.2 281.1 120.7 279.7 119.6C285.5 122.6 289.8 129.2 289.8 136.9Z" fill="white"/>
<path d="M274.3 134C277.172 134 279.5 131.403 279.5 128.2C279.5 124.997 277.172 122.4 274.3 122.4C271.428 122.4 269.1 124.997 269.1 128.2C269.1 131.403 271.428 134 274.3 134Z" fill="white"/>
<path d="M211.7 141.4C211.7 151.4 203.8 159.6 194.1 159.6C185.7 159.6 179.1 153.5 177.5 145.4C177.2 144.1 177.1 142.8 177.1 141.4C177.1 137.9 178 134.6 179.6 131.8C179.7 131.7 179.7 131.6 179.8 131.5C183.2 127.2 187.2 125.7 191 125.6C186 128.2 182.6 134.2 182.6 141.2C182.6 150.6 188.8 158.1 196.5 158.1C204.2 158.1 210.4 150.5 210.4 141.2C210.4 138.2 209.8 135.5 208.7 133C209.1 133.2 209.6 133.3 209.9 133.3C211.1 135.7 211.7 138.5 211.7 141.4Z" fill="white"/>
<path d="M204 134.6C204 137.5 201.9 139.8 199.4 139.8C196.8 139.8 194.8 137.5 194.8 134.6C194.8 131.7 196.9 129.4 199.4 129.4C202 129.4 204 131.7 204 134.6Z" fill="white"/>
<path d="M210.5 207.4C178.1 201 171.4 180.5 168.5 171.2C164.9 159.7 165.6 141.1 160.9 125.7C157 112.8 161 87.6 167.3 74.8C168.6 72.2 169.9 70.2 171.4 68.8C171.4 68.8 172.3 69.2 174 69.5C168.9 75.7 161.9 89.2 162.1 116.2C161.9 131.3 168.7 143.5 169.7 156.1C170.5 166.8 173.5 194.6 210.5 207.4Z" fill="#FAF0E7"/>
<path d="M319.3 123.2C319.2 125.8 318.4 134.9 317.3 144.9C316.8 148.8 316.3 152.9 315.7 156.7C314.6 163.9 313.4 170.4 312 173.9C312 173.9 297.7 206.6 239.6 209.2C232 209.5 225.3 209.3 219.3 208.7C251.7 206.6 290.1 197.4 302.1 168.1C320.7 122.9 304.6 79.5 292.1 65.5C279.6 51.5 257.6 56.1 219.7 71.5C188.7 79.8 173.9 77.6 167.2 74.8C168.5 72.2 169.8 70.2 171.3 68.8C171.3 68.8 181.7 73 195.4 66.6C195.4 66.6 193 72 182.1 74.9C182.1 74.9 195.5 73.5 202 64.8C202 64.8 216.1 65.3 223.7 56.7C223.7 56.7 228.4 60.9 242.3 57.6C242.3 57.6 234 58.4 229.3 55.9C229.6 56 236.8 57.9 245.2 54.8C253.8 51.6 265.6 49.8 273.2 51.6C280.9 53.3 289.2 53.7 289.2 53.7C289.2 53.7 287.6 56.3 279 54.3C279 54.3 285.3 58.6 291.8 55.3C294.6 53.8 297.2 53.5 297.2 53.5C297.2 53.5 295 59.9 299 65.4C299 65.4 298 61.3 298.7 58.8C298.7 58.8 299.9 63.4 302.7 66.2C305.5 69.1 307.5 74.9 307.4 77.2C307.4 77.2 308.3 73.3 307 69.9C307 69.9 309.7 69.9 309.7 80.5C309.7 91 313.6 97.6 313.8 97.9C313.8 97.7 311.9 88.9 312.8 85.8C312.8 85.8 313.7 95.5 317.2 101.2C320.7 106.7 319.6 117.7 319.3 123.2Z" fill="#EAA78D"/>
<path d="M332.3 157.8C331.8 162 325.3 165.2 323.8 162.6C322.3 160 327.9 158.4 327.9 157.3C327.9 156.2 326.4 150.8 327.4 147.9C328.3 145 334.7 134.2 339.9 139.3C339.9 139.3 342 140.6 341.8 143.3C341.6 146 342.1 147.2 339.3 145.3C336.5 143.4 332.3 143.1 331.7 146.4C330.2 151.5 332.8 153.5 332.3 157.8Z" fill="#EAA78D"/>
<path d="M300.1 237.4L290.6 280L251.8 271.4L259 225.9C259.8 225.9 260.5 225.9 261.3 225.9C288.4 226.3 300.1 237.4 300.1 237.4Z" fill="#8BD3DD"/>
<path d="M313.4 237.4L305.6 281.4L290.7 280L300.1 237.4H313.4Z" fill="#8BD3DD"/>
<path d="M349.8 220.5L340 264C340 264 313.9 272.4 305.6 281.4L313.3 237.3C313.3 237.3 325.2 222.9 347.3 220.6C348.2 220.7 349 220.6 349.8 220.5Z" fill="#8BD3DD"/>
<path d="M347.4 220.7C325.2 222.9 313.4 237.4 313.4 237.4H300.2C300.2 237.4 288.5 226.3 261.4 225.9L268 220.6C302.1 221.1 306.2 235.2 306.2 235.2C309.2 220.6 337 216.5 337 216.5L347.4 220.7Z" fill="white"/>
<path d="M319.2 278.9C319.2 279.1 319.2 279.3 319.1 279.5C318.4 284.9 316.4 288.8 313.1 290.9C309.6 293.2 304.7 293.4 299 291.5C288.2 288 285.5 281.2 283.8 276.8C283.6 276.3 283.4 275.8 283.2 275.4C282.9 274.7 282.6 273.7 283 273C283.2 272.6 283.6 272.4 283.9 272.3C287 277.4 294.6 282 295 282.3C295.2 282.4 295.3 282.4 295.5 282.4C295.8 282.4 296.2 282.2 296.4 281.9C296.7 281.4 296.5 280.8 296.1 280.5C295.8 280.3 295.6 280.2 295.2 280C292.3 278.1 287.2 274.3 285.3 270.7C285.3 270.7 285.3 270.6 285.2 270.6C284.9 270 284.7 269.4 284.6 268.8C284.4 267.4 284.6 266.7 284.9 266.6C285.3 266.3 286.4 266.7 287.1 267.1C289.6 270.3 297.5 275.8 298.6 276.6C298.7 276.6 298.7 276.7 298.7 276.7C298.9 276.8 299.1 276.9 299.3 276.9C299.6 276.9 299.9 276.7 300.1 276.5C300.4 276 300.3 275.4 299.8 275.1C299.7 275 290.8 268.9 288.5 265.8C287.2 264.1 287.3 263.3 287.4 263C287.6 262.6 288.5 261.8 292.6 261.8C295.3 261.8 299.2 263.7 303.9 267.2C307.6 270 310.4 272.8 310.5 272.8C310.9 273.2 311.5 273.2 311.9 272.8C312.3 272.4 312.3 271.8 311.9 271.4C311.8 271.3 310 269.5 307.3 267.3C306.2 264.4 306.6 262.3 308.4 261.1C308.9 260.8 309.5 260.7 310 260.9C310.6 261.1 311 261.5 311.3 262C312.7 265.2 315.3 269.4 317.3 272.4C318.8 274.2 319.4 276.6 319.2 278.9Z" fill="#FCD1B1"/>
<path d="M321.2 279.1C320.6 285.4 318.2 290.1 314.2 292.7C311.9 294.2 309.2 294.9 306.1 294.9C303.7 294.9 301.1 294.5 298.4 293.6C286.7 289.8 283.7 282.2 281.9 277.7C281.7 277.2 281.5 276.8 281.3 276.4C280.6 274.7 280.5 273.3 281.2 272.2C281.7 271.4 282.4 270.9 283 270.7C283.6 270.4 284.1 270.3 284.2 270.3C284.6 270.2 285 270.5 285.2 270.8C285.2 270.8 285.2 270.9 285.3 270.9C285.3 271 285.4 271.1 285.4 271.2C285.5 271.8 285.1 272.3 284.5 272.3C284.5 272.3 284.2 272.3 283.9 272.5C283.6 272.6 283.2 272.9 283 273.2C282.6 273.9 282.9 274.9 283.2 275.6C283.4 276 283.6 276.5 283.8 277C285.6 281.5 288.3 288.2 299 291.7C304.7 293.6 309.5 293.3 313.1 291.1C316.5 288.9 318.6 284.8 319.1 279C319.3 276.7 318.8 274.4 317.5 272.4C315.5 269.4 312.9 265.2 311.5 262C311.3 261.4 310.8 261 310.2 260.9C309.6 260.7 309.1 260.8 308.6 261.1C306.8 262.3 306.4 264.3 307.5 267.3C307.7 267.8 307.4 268.4 306.9 268.6C306.4 268.8 305.8 268.5 305.6 268C305.2 267 305 266.1 304.9 265.3C304.5 262.2 306 260.4 307.4 259.4C308.4 258.7 309.6 258.6 310.7 258.9C311.9 259.2 312.8 260.1 313.3 261.2C314.6 264.3 317.2 268.4 319.1 271.3C320.8 273.5 321.5 276.3 321.2 279.1Z" fill="#FCD1B1"/>
<path d="M230.3 245.3C230.1 245.1 229.8 245 229.6 245L208 244.6C207.5 244.6 207.1 244.9 207 245.4C206.8 246.2 205.9 250.3 206.1 251.8C206.1 252.1 206.3 252.4 206.7 252.9L206 268.2C206 268.5 206 269.2 206.6 269.9C207.8 271.4 210.6 272.2 214.8 272.3C215.9 272.3 216.8 272.4 217.8 272.4C219.2 272.5 220.5 272.5 221.7 272.5C225.8 272.5 228.4 271.7 228.9 267.8C229.4 263.7 229.2 256 229.1 253.6C229.5 253.5 229.7 253.1 229.8 252.8L230.6 246.1C230.6 245.8 230.5 245.6 230.3 245.3ZM226.9 267.7C226.5 270.8 224.6 270.9 217.9 270.5C217 270.5 216 270.4 214.9 270.4C209.5 270.2 208.1 268.9 208.1 268.4L208.7 254.3C209.4 254.7 210.4 255.2 211.7 255.8C214.1 256.9 216.5 257.9 216.6 257.9C216.7 257.9 216.8 258 217 258C217.1 258 217.2 258 217.3 257.9L227.2 254.5C227.2 257.3 227.3 264 226.9 267.7ZM227.9 252L222.5 253.9L217 255.8C215.3 255.1 213.5 254.3 211.9 253.6C210.1 252.7 208.6 251.9 208.2 251.5C208.1 250.7 208.5 248.5 208.9 246.8L228.6 247.1L227.9 252Z" fill="#134E44"/>
<path d="M251 128.4C250.7 129.2 251.6 130 252.3 129.5C253.4 128.7 254.5 127.8 255.7 126.9C256.7 125.2 257.9 123.7 259.4 122.4C260.6 121.3 261.9 120.4 263.3 119.7C261.9 120.9 260.6 122.4 259.6 124.1C257.7 127.2 256.6 131.1 256.6 135.4C256.6 145.7 263.3 154 271.5 154C279.7 154 286.4 145.7 286.4 135.4C286.4 131 285.2 127 283.2 123.8C282.2 122.2 280.9 120.7 279.5 119.6C285.7 122.7 290 129.3 290 137C290 137.5 290 137.9 290 138.4C290 138.5 290 138.6 290 138.6C290.8 138.3 291.4 137.6 291.6 136.7C298.1 110.9 259.7 105.9 251 128.4ZM279.6 128.2C279.6 131.4 277.3 134 274.4 134C271.5 134 269.2 131.4 269.2 128.2C269.2 125 271.5 122.4 274.4 122.4C277.2 122.4 279.6 125 279.6 128.2Z" fill="#134E44"/>
<path d="M211 132.1C207.6 125.5 200.5 123.1 195.8 121.6C191.1 120.1 176.2 121.8 174.4 132.2C172.9 140.6 176.2 144.2 177.5 145.3C177.2 144 177.1 142.7 177.1 141.3C177.1 137.8 178 134.5 179.6 131.7V131.6C179.7 131.5 179.7 131.4 179.8 131.4C183.2 127.1 187.2 125.6 191 125.5C186 128.1 182.6 134.1 182.6 141.1C182.6 150.5 188.8 158 196.5 158C204.2 158 210.4 150.4 210.4 141.1C210.4 138.1 209.8 135.4 208.7 132.9C209.1 133.1 209.6 133.2 209.9 133.2C210.6 133.2 211.2 132.9 211 132.1ZM199.4 139.8C196.8 139.8 194.8 137.5 194.8 134.6C194.8 131.7 196.9 129.4 199.4 129.4C202 129.4 204 131.7 204 134.6C204 137.5 202 139.8 199.4 139.8Z" fill="#134E44"/>
<path d="M288.9 100.8C291.1 101.1 293.2 101.6 295.4 102.1C294.8 101.1 294.1 100.1 293.4 99.2C284.3 89.2 268.3 89.6 257.2 95.8C253.2 98 249.4 100.9 246.8 104.7C254.9 103.6 263.5 101.5 271.5 100.6C277.2 100 283.1 99.9 288.9 100.8Z" fill="#134E44"/>
<path d="M169.1 115.3C169.8 115.1 171.2 114.6 171.9 114.3C176.8 112.7 182 110.4 187 109.4C189.1 108.9 191.3 108.7 193.5 108.5C196.2 108.3 198.8 108.4 201.4 108.5C202.2 108.6 203.1 108.6 203.9 108.7C204.4 108.8 205.6 108.9 206.1 108.9C207.1 109 208.1 109.1 209.1 109.2L209.2 109C208.4 108.3 207.7 107.6 206.8 107C200.8 102.6 193.1 100.7 185.7 101.5C179.3 102.2 172.8 104.9 168.8 110.1C167.5 111.8 166.3 113.8 165.9 116L166.1 116.1C167.1 115.9 168.1 115.6 169.1 115.3Z" fill="#134E44"/>
<path d="M229.3 164.4C229.5 164.5 229.7 164.6 229.9 164.6C230.2 164.6 230.5 164.5 230.7 164.2C231 163.7 230.9 163.1 230.5 162.8C228.7 161.5 227.8 160.3 227.9 159.4C228 158.3 229.6 157.4 230.2 157.1C230.7 156.9 231 156.3 230.8 155.8C230.6 155.3 230 155 229.5 155.2C229.2 155.3 226.2 156.6 225.9 159.1C225.7 160.8 226.8 162.6 229.3 164.4Z" fill="#134E44"/>
<path d="M349.7 219.5C348.1 220.6 338.9 215.9 337.3 215.4C332.4 214.9 309.7 222.9 307 230.1C296.3 215.3 285.9 212.9 272.7 209.8L269.6 206.5C285.9 202.9 308.1 187.6 313.3 175.5C321.3 178.9 333.7 177.4 340.3 170.2C351.9 159 360.7 129.5 339.2 125.6C355.9 83.7 331.9 39.6 303.1 40C300.1 30.3 281.7 21.4 271.3 17.9C217.9 -0.899971 187.5 36.6 172.3 17.7C168.2 29.9 182.3 32.1 182.3 32.1C170 32.5 159.8 61 141.7 51.5C141.7 51.5 145.6 66.4 158.2 66.9C143.3 93.2 155.9 110.7 159.4 128C151.2 144.8 148.9 164.7 168.1 176.6C174.4 196.3 195.3 208.7 217.6 210.6C208.5 213.9 190.3 227.4 186.8 230.6C184.3 227.9 177.7 224.4 175.9 223.5C176 222.7 168.3 218.2 166.7 217.5C165.2 211.7 158.4 203.6 151.9 202.6C144.3 200.7 140.4 199.1 138.7 198.4C136 197.4 135.1 200.3 135 202.7L77 152.9L74.2 150.5C74.1 150.5 74.1 150.4 74 150.4C73.8 150.1 73.4 150 73 150C69.8 150.6 68.2 154.4 69.7 155.7L72.6 158.2L132.8 209.8C129.8 212.1 129.1 217.3 132.7 221C131.9 223.4 131.7 227.6 135.2 229.9C134.9 236.5 141.3 239.5 149.4 239.6C150.1 244.4 158.3 247.9 159.5 248.5C163.9 255.3 187.5 271.6 200.9 261.7C201.2 262.5 194.5 318.7 195.4 319.3C196.4 320.5 199.1 321.8 201.5 322.6C200.2 334.7 203.3 349.6 204.6 361.8C205.8 373.8 209 394.9 209.1 395.1C209.1 395.4 209.4 395.7 209.6 395.9C200.3 401.2 191.9 404.5 195.7 412.1C196.2 412.9 197.1 413.6 198.3 414C206.2 416.7 219.1 414.1 226.9 413.9C229.5 414.4 232.8 414 236 413.7C239.4 413.1 241 413 242.2 411.4C243.2 409.4 242.6 401.4 242.3 398.5C243.8 397.5 244.2 396.4 244.3 396.2C244.4 396.1 248.8 344.1 248.9 343.9L263.1 398.2C263.3 398.9 264 399 264.6 399.1C264.3 402.1 264.9 412.4 266.4 412.4C267.7 413.4 275.7 416.3 285.3 416.3C290.4 416.3 296.1 415.4 300.5 413.4C305.5 410.3 299.3 399.7 296.1 395.9C297.1 395.2 296.1 323 296.4 322.1C297.7 321.4 300.9 320.9 301 319.4L299.8 295.8C303.8 300.6 312.2 300.8 318.2 298.1C328.4 293.1 334.1 286.8 329.5 268.8C336.5 265.7 339.8 265.7 340.8 264.2L350.6 220.7C350.9 220.1 350.4 219.5 349.7 219.5ZM307.1 235.3C309.3 222.8 333.9 217.8 336.8 217.4L343.5 220.2C331.9 222.2 320.8 227.8 312.8 236.3H300.4C290.2 228.4 276.7 225.6 264 224.9L268.2 221.5C279.3 221.6 299.8 224 305 235.3C305.1 235.8 305.5 236.1 306 236C306.6 236.1 307 235.8 307.1 235.3ZM305 265.2C301.6 262.7 298.7 261.1 296.1 260.3C296.7 257.5 300.4 240.9 300.9 238.5H312.1L311.9 239.8L308.6 258.9C306.3 259.7 304.7 261.5 305 265.2ZM285.7 264.5C282.7 264.1 282 267.8 283 270.5C280.5 271.5 280.3 274.5 281.6 277L252.9 270.7L259 232.5C259.1 232.1 259.8 227.3 259.9 227C278.1 227.6 288.1 230.2 299 237.9L294.1 259.9C289.4 259.4 284.5 260.3 285.7 264.5ZM306 232.1C306 232.2 305.9 232.3 305.9 232.4C297.7 222.2 285 219.9 267.6 219.6L272.7 212C286.7 215.3 295.4 217.6 306 232.1ZM270.3 210.3L270.9 210.9C270.6 211.4 262.9 222.8 262.3 223.7L260.9 224.8C259.9 224.9 258.2 224.3 258 225.7L257.5 229.1C255.3 225.6 251 219.6 247.8 217.9C252.2 215.4 257.9 212 262 208.5C263.8 208.1 265.6 207.7 267.4 207.2L270.3 210.3ZM231.8 211.4C240.3 211.4 249.6 210.8 257.7 209.3C241.8 220.5 246.9 212.3 239.3 227.5C237.1 214.7 238.3 221.2 231.8 211.4ZM234.7 218.6C230.1 219.7 226.7 223.8 225.1 226.4C224.6 224.2 222.3 213.3 224.3 211.2C226 211.3 227.7 211.4 229.5 211.4C230.7 213.9 233.2 216.8 234.7 218.6ZM325.1 150.3C325.8 157 329.8 156.2 322.7 161.4C334.2 158.2 325.4 153.8 328 147.1C332.6 148 335 150.5 334 155.3C337.8 150.5 334.7 145.8 329.8 144.6C333.4 140.1 339.9 136.3 340.4 145C340.6 145.4 341.4 145.9 342 146C346.1 145 341.7 133.3 334.1 137.3C335.6 134.5 337 131.3 338.5 127.7C341.8 128 344.8 129.4 346.9 131.8C356.6 140.9 344.5 170.9 330.4 174.2C323.6 176.5 317.2 174.8 314.2 173.7C315.4 170.4 316.8 163.1 317.9 155.8C319.8 154.8 322.3 153.2 325.1 150.3ZM159.4 114.7C159.4 100.4 161.8 85.3 168.6 72.6C169.4 71.2 170.3 69.9 171.4 68.8C179.3 71.4 188.1 70 195.5 66.6C195.5 66.6 193.1 72 182.2 74.9C182.2 74.9 195.6 73.5 202.1 64.8C207.9 64.8 214 63.5 219.1 60.5C219.9 60 220.7 59.5 221.4 58.9C222.3 58.2 223.1 57.4 223.8 56.6C226.1 59.2 236.8 59.3 242.4 57.5C239.1 57.8 232.8 57.7 229.4 55.8C239.4 58.4 246.8 53.2 256.3 51.7C259.6 51.1 263.1 50.7 266.4 50.7C268.9 50.7 271.3 50.9 273.3 51.4C281 53.1 289.3 53.5 289.3 53.5C286.6 55.8 282.3 54.7 279.1 54.1C283 56.4 287.6 57.2 291.9 55.1C294.7 53.6 297.3 53.3 297.3 53.3C297.3 53.3 295.1 59.7 299.1 65.2C299.1 65.2 298.1 61.1 298.8 58.6C299.9 64.2 307.5 69.5 307.6 77C307.6 77 308.5 73.1 307.2 69.7C311.3 70.8 308.5 90.8 314 97.7C314 97.5 312.1 88.7 313 85.6C315.8 106.1 322.3 99.3 319 128.8L304.1 130C295.1 98.7 243.1 101.1 238.1 133.7C232.6 130.4 226 130.5 220.6 134C213.8 109.4 174.7 104.7 161.1 125.8C161.1 125.8 161.1 125.8 161.1 125.7C159.9 122.1 159.5 118.4 159.4 114.7ZM301.3 138.7C300.7 174.2 242.6 175.1 241.6 138.7C242.2 102.8 300.6 102.9 301.3 138.7ZM162.3 131.2C174.4 106.6 218 114.2 217.7 142.7C217.6 168.4 182.2 178 166.1 159.6C165 150.8 164.4 140.7 162.3 131.2ZM163.7 156.5C159.4 150.3 158.2 141.6 160.9 134.4C162.3 141.6 162.9 149.1 163.7 156.5ZM155.8 156.5C155.2 153.1 155.2 149.8 155.7 146.7C156.7 153.3 159.9 159.3 164.8 163.9C165.4 167.4 166 170.2 167.1 173.3C160.8 168.7 157 163 155.8 156.5ZM167.2 166C188.6 183.5 226 167.1 221.5 138.1C226.5 134.3 232.6 134.4 237.5 138.2C238.6 183.3 310.5 178.4 304.9 133.9L318.5 132.8C318.2 135.7 317.9 138.5 317.6 141.4C316.5 150.9 314.7 166.6 311.9 173.9C299.7 199 257.4 213.1 219.2 208.7C186.8 205.9 171 187.5 167.2 166ZM73.5 156.2L72 154.9C72 154.9 72 154.9 72.1 154.9C72.8 154.3 73.4 153.6 73.8 152.8L75.3 154.1C74.9 154.9 74.3 155.7 73.5 156.2ZM126.9 201.9C109.6 187.1 75.1 157.6 75.1 157.6C75.8 157 76.4 156.2 76.8 155.4C78.9 157.2 141.1 210.4 141.6 210.9C139.9 210.6 138 210.4 136.5 210.2C136.5 210.1 132.6 206.9 126.9 201.9ZM133.9 219.1C132.7 217.6 132.2 216.1 132.3 214.8C132.4 213.5 133.1 212.5 133.6 211.9C135.5 212.1 137.5 212.4 139.3 212.6C144.7 213.5 144.2 213 147.6 216C148 217.3 147.4 218.1 146.7 218.9C146.4 219.2 146 219.4 145.7 219.5C145.3 219.6 145 219.7 144.6 219.8C144.4 219.9 143.7 220 142.7 220C140.8 220 137.6 219.7 133.9 219.1ZM134.3 224C134.3 222.7 134.6 221.6 134.8 221.2C138 221.8 140.4 222 142 222C146.4 222 145.8 220.5 148.8 223.4C149.1 228 140.3 227.9 136.5 228.2C135.1 227.3 134.3 225.9 134.3 224ZM148.4 220.1C148.9 219.5 149.4 218.8 149.6 217.7L157.7 224.6C159.1 225.8 157.2 227.9 155.9 226.7L150.6 222.2C150.2 221.2 149.5 220.6 148.4 220.1ZM138.4 233.8C137.3 232.5 137.2 231.1 137.2 230.2C140.8 229.9 143.5 230 147.2 228.6C149.7 230 149.2 232.1 146.9 233.7C145.6 234.7 142.3 235.3 140.8 235.5C139.7 235 138.9 234.4 138.4 233.8ZM144.5 236.9C149.1 236.2 153.4 230.9 149.1 227.5C149.8 226.9 150.4 226.1 150.7 225.1C152.1 226 155 229.5 156.8 229.3C159.9 229.4 161.4 225.2 159 223.3C157.3 222 148.4 214.2 147.2 212.8C148.3 212.8 150.6 213.8 150.9 212.2C150.9 211.6 150.5 211.1 150 211.1C147.4 210.9 145.2 210.5 143.4 209.9L137.4 204.7C137.1 203.6 137.3 200.6 138.1 200.4C139.8 201.2 143.9 202.8 151.6 204.7C161.1 207.1 164.5 216.8 165 218.4C163.7 227.1 158.7 233.2 152.4 237.5C149.1 237.5 146.5 237.3 144.5 236.9ZM151.8 240.2C152.2 240 152.7 239.7 153.2 239.3C158.5 236.9 166.2 227 166.8 219.8C170.1 221.5 173.4 223.6 174.1 224.4C173.1 231.3 168.9 241.4 160.1 246.5C158.7 245.7 153.9 243.4 151.8 240.2ZM201.4 320.3C199.1 319.4 197.9 318.7 197.3 318.1C198.8 303.5 203.7 252.1 206.2 238.8C205.1 234.1 201.5 259.7 201.2 258.8C189.2 269.4 167.2 255 161.7 247.7C170.7 241.9 174.3 233.4 175.9 225.6C184.2 229.8 187.4 232.9 189.5 240.7C190.9 241.6 188.2 232.9 187.8 232.2C191.2 228.9 212.8 213.1 221.9 211C221.3 212.5 221 214.7 221.5 218C225.4 242.1 222.9 223.6 235.8 220.3C239.2 222.2 235.4 306.8 235.6 312.3C235.3 313.6 232.8 324.5 232.5 326.1C228.4 325.7 210.7 323.7 201.4 320.3ZM240.5 410.2C240.1 411.2 230.5 412.2 228.6 411.9C226.2 411.6 226.8 411.6 221.7 412.1C214.2 412.5 202.5 414.8 197.6 410.9C194.5 404.9 204.1 401.4 212.5 396.6C223.7 399.8 231.6 402.1 240.5 399.4C240.9 404.1 241 409.2 240.5 410.2ZM265 397.1L249.5 337.7C248.9 336.5 247.1 336.3 246 335.7C244.5 335.1 241.5 334 239.9 333.5C239.1 333.4 237 332 236.4 332.6C236.1 333.4 238.8 334.1 239.4 334.6C241.9 335.8 244.9 337.5 247.4 338.6L242.4 395.5C242.3 395.7 241.9 396.3 241 396.9C232.3 400.9 221.8 397.2 211.1 394.1C210.1 388.3 207.1 365 205.7 353.3C204.4 343.5 202.7 332.5 203.6 323.2C214.8 326.5 232.4 328.2 233.4 328.3C233.9 328.3 234.3 328 234.4 327.5L236.9 316.2C237.4 316.7 240.6 328.9 241.8 328.2C255.2 328.6 278.3 328.2 294.5 323V394.7C286.1 399.2 274.7 399.3 265 397.1ZM300.4 410.5C300.3 411.4 299.9 411.5 299.8 411.6C291.6 416.4 270.2 413.3 267.8 410.8C267.8 410.8 267 410 266.8 404.3C266.7 402.5 266.7 400.7 266.8 399.6C276.1 401.5 287 400.8 294.4 397.1C297.2 399.6 300.8 407.2 300.4 410.5ZM295.8 320.3C281.6 326.3 247.3 326.6 242.6 326.1C242 324.6 238.2 313.5 237.8 312.4C237.7 312.4 239.9 230.9 239.8 230.9L245.8 219.2C247.8 218.7 256 229.8 257 232.2L250.8 271.2C250.7 271.7 251.1 272.2 251.6 272.4L282.6 279.3C284.5 283.7 287.9 289.9 297.8 293.3L299.1 318.9C298.1 319.4 297 319.8 295.8 320.3ZM299.7 291.8C290.7 289.2 286.1 283.4 284 277.5C283.5 275.9 281.6 273.3 283.8 272.3C286.4 276.3 291.3 280.4 295.4 282.4C296.4 282.4 296.8 281 295.9 280.5C292.1 278.1 287.2 274.4 285.1 270.6C284.1 268.3 283.8 265.2 287 267.1C288.2 268.7 291.1 271.1 293.2 272.7C296.6 275.1 298.1 276.6 299.2 276.9C300.2 276.9 300.6 275.6 299.8 275C299.7 275 296.7 272.8 293.7 270.5C291.5 268.8 287 265.2 287.5 262.9C287.7 262.5 288.6 261.7 292.7 261.7C293.7 261.7 294.5 261.9 295.5 262.2C299 263.2 305 267.5 308.4 270.6C309.8 271.8 310.6 272.6 310.6 272.6C311.5 273.5 313 272.1 312 271.1C312.1 271.1 308.6 268 307.4 267C306.2 264.3 306.8 260.2 310.1 260.6C310.7 260.8 311.1 261.2 311.4 261.7C312.8 264.9 315.2 268.8 317.3 272C318.6 274 319.3 276.4 319 278.7C318.1 290.4 310.7 295.1 299.7 291.8ZM322.6 293.6C316.7 297.9 306.8 300.6 301.2 294.3C305.6 295.4 310.6 295.1 314.3 292.7C319.4 289.7 323.2 279.8 320.3 273.1C320.9 272.8 321.4 272.6 322 272.3C324.7 275.2 327.5 285.8 322.6 293.6ZM326.7 289C328.2 280.8 326.3 275.5 324 271.3C325.3 270.7 326.5 270.2 327.8 269.7C328.8 273.1 329.3 276.3 329.3 279.1C329.3 282.9 328.4 286.2 326.7 289ZM339.1 263.2C336.3 264.1 326.3 267.8 321.7 270C320.6 269.8 319.4 270.1 318.7 270.4C316.8 267.5 314.6 263.8 313.3 261C312.8 259.8 311.8 259 310.5 258.7C311.1 255.5 313.7 240.7 314.2 237.8C321.2 229.7 336.1 222.2 348.4 221.6L339.1 263.2Z" fill="#134E44"/>
<path d="M234.9 181.7C240.8 181.5 246.6 179.2 251.2 175.6C251.4 175.5 251.4 175.2 251.3 175C251.2 174.8 250.9 174.7 250.6 174.8C248.1 176.2 245.6 177.4 242.9 178.2C234.9 180.8 226.1 179.8 218.5 176.3C218.3 176.2 218 176.2 217.9 176.4C217.7 176.6 217.8 176.9 218 177.1C218.3 177.3 218.6 177.5 218.9 177.7C220.5 178.7 222.1 179.4 223.9 180.1C227.5 181.3 231.2 181.8 234.9 181.7Z" fill="#134E44"/>
</svg>
